ffmpeg started on 2025-05-28 at 10:02:28
Report written to "D:\Convert\FFMetrics\reports\psnr_report-6.txt"
Log level: 32
Command line:
ffmpeg -hide_banner -nostdin -i "G:\\\xc0\xed\xe8\xec\xe5\\\xce\xed\xe3\xee\xe8\xed\xe3\xe8\\!_36_\xce\xf1\xe5\xed\xfc_2024\\JamClub\\MF \xcf\xf0\xe8\xe7\xf0\xe0\xea\\\xd2\xc2-1\\[JAMCLUB] MF Ghost - 02 (1080p)_HEVC.mkv" -i "G:\\\xc0\xed\xe8\xec\xe5\\\xce\xed\xe3\xee\xe8\xed\xe3\xe8\\!_36_\xce\xf1\xe5\xed\xfc_2024\\JamClub\\MF \xcf\xf0\xe8\xe7\xf0\xe0\xea\\\xd2\xc2-1\\[JAMCLUB] MF Ghost - 02 (1080p).mp4" -lavfi "[0:v]settb=AVTB,setpts=PTS-STARTPTS,format=pix_fmts=yuv420p10,fps=24000/1001,scale=1920:1080:flags=bicubic[main];[1:v]settb=AVTB,setpts=PTS-STARTPTS,format=pix_fmts=yuv420p,fps=24000/1001,scale=1920:1080:flags=bicubic[ref];[main][ref]psnr=eof_action=endall:stats_file='D\\:/Convert/FFMetrics/logs/psnr_logfile-6.txt'" -f null -
Input #0, matroska,webm, from 'G:\Аниме\Онгоинги\!_36_Осень_2024\JamClub\MF Призрак\ТВ-1\[JAMCLUB] MF Ghost - 02 (1080p)_HEVC.mkv':
  Metadata:
    COMPATIBLE_BRANDS: isomiso2avc1mp41
    MAJOR_BRAND     : isom
    MINOR_VERSION   : 512
    ENCODER         : Lavf61.7.100
  Duration: 00:23:54.77, start: -0.021000, bitrate: 1878 kb/s
  Stream #0:0: Video: hevc (Main 10), yuv420p10le(tv, bt709, progressive), 1920x1080 [SAR 1:1 DAR 16:9], 23.98 fps, 23.98 tbr, 1k tbn (default)
      Metadata:
        HANDLER_NAME    : VideoHandler
        VENDOR_ID       : [0][0][0][0]
        ENCODER         : Lavc61.19.100 libx265
        BPS             : 1678993
        DURATION        : 00:23:54.683708333
        NUMBER_OF_FRAMES: 34398
        NUMBER_OF_BYTES : 301102995
        _STATISTICS_WRITING_APP: mkvpropedit v66.0.0 ('Josie') 64-bit
        _STATISTICS_WRITING_DATE_UTC: 2025-05-27 07:38:23
        _STATISTICS_TAGS: BPS DURATION NUMBER_OF_FRAMES NUMBER_OF_BYTES
  Stream #0:1: Audio: aac (LC), 48000 Hz, stereo, fltp (default)
      Metadata:
        HANDLER_NAME    : SoundHandler
        VENDOR_ID       : [0][0][0][0]
        ENCODER         : Lavc61.19.100 aac
        BPS             : 195497
        DURATION        : 00:23:54.752000000
        NUMBER_OF_FRAMES: 67255
        NUMBER_OF_BYTES : 35061255
        _STATISTICS_WRITING_APP: mkvpropedit v66.0.0 ('Josie') 64-bit
        _STATISTICS_WRITING_DATE_UTC: 2025-05-27 07:38:23
        _STATISTICS_TAGS: BPS DURATION NUMBER_OF_FRAMES NUMBER_OF_BYTES
Input #1, mov,mp4,m4a,3gp,3g2,mj2, from 'G:\Аниме\Онгоинги\!_36_Осень_2024\JamClub\MF Призрак\ТВ-1\[JAMCLUB] MF Ghost - 02 (1080p).mp4':
  Metadata:
    major_brand     : isom
    minor_version   : 512
    compatible_brands: isomiso2avc1mp41
    encoder         : Lavf60.10.100
  Duration: 00:23:54.75, start: 0.000000, bitrate: 5279 kb/s
  Stream #1:0[0x1](und): Video: h264 (High) (avc1 / 0x31637661), yuv420p(progressive), 1920x1080 [SAR 1:1 DAR 16:9], 5018 kb/s, 23.98 fps, 23.98 tbr, 24k tbn (default)
      Metadata:
        handler_name    : VideoHandler
        vendor_id       : [0][0][0][0]
        encoder         : Lavc60.23.100 h264_nvenc
  Stream #1:1[0x2](und): Audio: aac (LC) (mp4a / 0x6134706D), 48000 Hz, stereo, fltp, 256 kb/s (default)
      Metadata:
        handler_name    : SoundHandler
        vendor_id       : [0][0][0][0]
Stream mapping:
  Stream #0:0 (hevc) -> settb:default
  Stream #1:0 (h264) -> settb:default
  psnr:default -> Stream #0:0 (wrapped_avframe)
  Stream #0:1 -> #0:1 (aac (native) -> pcm_s16le (native))
[swscaler @ 000001c5eb726340] No accelerated colorspace conversion found from yuv420p to bgr48le.
[swscaler @ 000001c5ebb14200] No accelerated colorspace conversion found from yuv420p to bgr48le.
[swscaler @ 000001c5ebcb4b80] No accelerated colorspace conversion found from yuv420p to bgr48le.
[swscaler @ 000001c5e4874800] No accelerated colorspace conversion found from yuv420p to bgr48le.
[swscaler @ 000001c5ebd68ac0] No accelerated colorspace conversion found from yuv420p to bgr48le.
[swscaler @ 000001c5ec0b4280] No accelerated colorspace conversion found from yuv420p to bgr48le.
[swscaler @ 000001c5ec132280] No accelerated colorspace conversion found from yuv420p to bgr48le.
[swscaler @ 000001c5ec1cbec0] No accelerated colorspace conversion found from yuv420p to bgr48le.
[swscaler @ 000001c5ec2ee380] No accelerated colorspace conversion found from yuv420p to bgr48le.
[swscaler @ 000001c5f2f14cc0] No accelerated colorspace conversion found from yuv420p to bgr48le.
[swscaler @ 000001c5f2fae8c0] No accelerated colorspace conversion found from yuv420p to bgr48le.
[swscaler @ 000001c5f31f5040] No accelerated colorspace conversion found from yuv420p to bgr48le.
[swscaler @ 000001c5f32dc040] No accelerated colorspace conversion found from yuv420p to bgr48le.
[swscaler @ 000001c5f3500d40] No accelerated colorspace conversion found from yuv420p to bgr48le.
[swscaler @ 000001c5f351ad00] No accelerated colorspace conversion found from yuv420p to bgr48le.
[swscaler @ 000001c5f36a1040] No accelerated colorspace conversion found from yuv420p to bgr48le.
Output #0, null, to 'pipe:':
  Metadata:
    COMPATIBLE_BRANDS: isomiso2avc1mp41
    MAJOR_BRAND     : isom
    MINOR_VERSION   : 512
    encoder         : Lavf61.7.100
  Stream #0:0: Video: wrapped_avframe, yuv420p10le(tv, bt709, progressive), 1920x1080 [SAR 1:1 DAR 16:9], q=2-31, 200 kb/s, 23.98 fps, 23.98 tbn
      Metadata:
        encoder         : Lavc61.19.100 wrapped_avframe
  Stream #0:1: Audio: pcm_s16le, 48000 Hz, stereo, s16, 1536 kb/s (default)
      Metadata:
        HANDLER_NAME    : SoundHandler
        VENDOR_ID       : [0][0][0][0]
        _STATISTICS_TAGS: BPS DURATION NUMBER_OF_FRAMES NUMBER_OF_BYTES
        BPS             : 195497
        DURATION        : 00:23:54.752000000
        NUMBER_OF_FRAMES: 67255
        NUMBER_OF_BYTES : 35061255
        _STATISTICS_WRITING_APP: mkvpropedit v66.0.0 ('Josie') 64-bit
        _STATISTICS_WRITING_DATE_UTC: 2025-05-27 07:38:23
        encoder         : Lavc61.19.100 pcm_s16le
frame=   30 fps=0.0 q=-0.0 size=N/A time=00:00:01.25 bitrate=N/A speed=2.38x    frame=   61 fps= 59 q=-0.0 size=N/A time=00:00:02.54 bitrate=N/A speed=2.46x    frame=  100 fps= 64 q=-0.0 size=N/A time=00:00:04.17 bitrate=N/A speed=2.67x    frame=  144 fps= 70 q=-0.0 size=N/A time=00:00:06.00 bitrate=N/A speed= 2.9x    frame=  179 fps= 69 q=-0.0 size=N/A time=00:00:07.46 bitrate=N/A speed= 2.9x    frame=  218 fps= 70 q=-0.0 size=N/A time=00:00:09.09 bitrate=N/A speed=2.93x    frame=  257 fps= 71 q=-0.0 size=N/A time=00:00:10.71 bitrate=N/A speed=2.97x    frame=  290 fps= 70 q=-0.0 size=N/A time=00:00:12.09 bitrate=N/A speed=2.92x    frame=  323 fps= 69 q=-0.0 size=N/A time=00:00:13.47 bitrate=N/A speed= 2.9x    frame=  367 fps= 71 q=-0.0 size=N/A time=00:00:15.30 bitrate=N/A speed=2.97x    frame=  401 fps= 71 q=-0.0 size=N/A time=00:00:16.72 bitrate=N/A speed=2.95x    frame=  436 fps= 70 q=-0.0 size=N/A time=00:00:18.18 bitrate=N/A speed=2.93x    frame=  470 fps= 70 q=-0.0 size=N/A time=00:00:19.60 bitrate=N/A speed=2.92x    frame=  505 fps= 70 q=-0.0 size=N/A time=00:00:21.06 bitrate=N/A speed=2.92x    frame=  537 fps= 69 q=-0.0 size=N/A time=00:00:22.39 bitrate=N/A speed=2.89x    frame=  577 fps= 70 q=-0.0 size=N/A time=00:00:24.06 bitrate=N/A speed=2.91x    frame=  611 fps= 70 q=-0.0 size=N/A time=00:00:25.48 bitrate=N/A speed=2.91x    frame=  645 fps= 70 q=-0.0 size=N/A time=00:00:26.90 bitrate=N/A speed= 2.9x    frame=  687 fps= 70 q=-0.0 size=N/A time=00:00:28.65 bitrate=N/A speed=2.92x    frame=  718 fps= 70 q=-0.0 size=N/A time=00:00:29.94 bitrate=N/A speed= 2.9x    frame=  760 fps= 70 q=-0.0 size=N/A time=00:00:31.69 bitrate=N/A speed=2.93x    frame=  802 fps= 71 q=-0.0 size=N/A time=00:00:33.45 bitrate=N/A speed=2.95x    frame=  839 fps= 71 q=-0.0 size=N/A time=00:00:34.99 bitrate=N/A speed=2.95x    frame=  877 fps= 71 q=-0.0 size=N/A time=00:00:36.57 bitrate=N/A speed=2.95x    frame=  901 fps= 70 q=-0.0 size=N/A time=00:00:37.57 bitrate=N/A speed=2.92x    frame=  949 fps= 71 q=-0.0 size=N/A time=00:00:39.58 bitrate=N/A speed=2.95x    frame=  982 fps= 71 q=-0.0 size=N/A time=00:00:40.95 bitrate=N/A speed=2.94x    frame= 1019 fps= 71 q=-0.0 size=N/A time=00:00:42.50 bitrate=N/A speed=2.94x    frame= 1055 fps= 71 q=-0.0 size=N/A time=00:00:44.00 bitrate=N/A speed=2.94x    frame= 1091 fps= 71 q=-0.0 size=N/A time=00:00:45.50 bitrate=N/A speed=2.94x    frame= 1126 fps= 70 q=-0.0 size=N/A time=00:00:46.96 bitrate=N/A speed=2.94x    frame= 1154 fps= 70 q=-0.0 size=N/A time=00:00:48.13 bitrate=N/A speed=2.92x    frame= 1191 fps= 70 q=-0.0 size=N/A time=00:00:49.67 bitrate=N/A speed=2.92x    frame= 1228 fps= 70 q=-0.0 size=N/A time=00:00:51.21 bitrate=N/A speed=2.92x    frame= 1263 fps= 70 q=-0.0 size=N/A time=00:00:52.67 bitrate=N/A speed=2.92x    frame= 1299 fps= 70 q=-0.0 size=N/A time=00:00:54.17 bitrate=N/A speed=2.92x    frame= 1336 fps= 70 q=-0.0 size=N/A time=00:00:55.72 bitrate=N/A speed=2.92x    frame= 1371 fps= 70 q=-0.0 size=N/A time=00:00:57.18 bitrate=N/A speed=2.92x    frame= 1412 fps= 70 q=-0.0 size=N/A time=00:00:58.89 bitrate=N/A speed=2.93x    frame= 1453 fps= 70 q=-0.0 size=N/A time=00:01:00.60 bitrate=N/A speed=2.94x    frame= 1484 fps= 70 q=-0.0 size=N/A time=00:01:01.89 bitrate=N/A speed=2.93x    frame= 1520 fps= 70 q=-0.0 size=N/A time=00:01:03.39 bitrate=N/A speed=2.92x    frame= 1556 fps= 70 q=-0.0 size=N/A time=00:01:04.89 bitrate=N/A speed=2.92x    frame= 1594 fps= 70 q=-0.0 size=N/A time=00:01:06.48 bitrate=N/A speed=2.93x    frame= 1629 fps= 70 q=-0.0 size=N/A time=00:01:07.94 bitrate=N/A speed=2.92x    frame= 1664 fps= 70 q=-0.0 size=N/A time=00:01:09.40 bitrate=N/A speed=2.92x    frame= 1703 fps= 70 q=-0.0 size=N/A time=00:01:11.02 bitrate=N/A speed=2.93x    frame= 1741 fps= 70 q=-0.0 size=N/A time=00:01:12.61 bitrate=N/A speed=2.93x    frame= 1776 fps= 70 q=-0.0 size=N/A time=00:01:14.07 bitrate=N/A speed=2.93x    frame= 1818 fps= 70 q=-0.0 size=N/A time=00:01:15.82 bitrate=N/A speed=2.94x    frame= 1854 fps= 70 q=-0.0 size=N/A time=00:01:17.32 bitrate=N/A speed=2.94x    frame= 1888 fps= 70 q=-0.0 size=N/A time=00:01:18.74 bitrate=N/A speed=2.93x    frame= 1931 fps= 71 q=-0.0 size=N/A time=00:01:20.53 bitrate=N/A speed=2.94x    frame= 1970 fps= 71 q=-0.0 size=N/A time=00:01:22.16 bitrate=N/A speed=2.95x    frame= 2008 fps= 71 q=-0.0 size=N/A time=00:01:23.75 bitrate=N/A speed=2.95x    frame= 2048 fps= 71 q=-0.0 size=N/A time=00:01:25.41 bitrate=N/A speed=2.96x    frame= 2086 fps= 71 q=-0.0 size=N/A time=00:01:27.00 bitrate=N/A speed=2.96x    frame= 2126 fps= 71 q=-0.0 size=N/A time=00:01:28.67 bitrate=N/A speed=2.96x    frame= 2163 fps= 71 q=-0.0 size=N/A time=00:01:30.21 bitrate=N/A speed=2.96x    frame= 2193 fps= 71 q=-0.0 size=N/A time=00:01:31.46 bitrate=N/A speed=2.95x    frame= 2235 fps= 71 q=-0.0 size=N/A time=00:01:33.21 bitrate=N/A speed=2.96x    frame= 2271 fps= 71 q=-0.0 size=N/A time=00:01:34.71 bitrate=N/A speed=2.96x    frame= 2309 fps= 71 q=-0.0 size=N/A time=00:01:36.30 bitrate=N/A speed=2.96x    frame= 2346 fps= 71 q=-0.0 size=N/A time=00:01:37.84 bitrate=N/A speed=2.96x    frame= 2378 fps= 71 q=-0.0 size=N/A time=00:01:39.18 bitrate=N/A speed=2.96x    frame= 2419 fps= 71 q=-0.0 size=N/A time=00:01:40.89 bitrate=N/A speed=2.96x    frame= 2453 fps= 71 q=-0.0 size=N/A time=00:01:42.31 bitrate=N/A speed=2.96x    frame= 2489 fps= 71 q=-0.0 size=N/A time=00:01:43.81 bitrate=N/A speed=2.96x    frame= 2525 fps= 71 q=-0.0 size=N/A time=00:01:45.31 bitrate=N/A speed=2.96x    frame= 2558 fps= 71 q=-0.0 size=N/A time=00:01:46.68 bitrate=N/A speed=2.95x    frame= 2593 fps= 71 q=-0.0 size=N/A time=00:01:48.14 bitrate=N/A speed=2.95x    frame= 2638 fps= 71 q=-0.0 size=N/A time=00:01:50.02 bitrate=N/A speed=2.96x    frame= 2674 fps= 71 q=-0.0 size=N/A time=00:01:51.52 bitrate=N/A speed=2.96x    frame= 2714 fps= 71 q=-0.0 size=N/A time=00:01:53.19 bitrate=N/A speed=2.97x    frame= 2751 fps= 71 q=-0.0 size=N/A time=00:01:54.73 bitrate=N/A speed=2.96x    frame= 2787 fps= 71 q=-0.0 size=N/A time=00:01:56.24 bitrate=N/A speed=2.97x    frame= 2825 fps= 71 q=-0.0 size=N/A time=00:01:57.82 bitrate=N/A speed=2.97x    frame= 2862 fps= 71 q=-0.0 size=N/A time=00:01:59.36 bitrate=N/A speed=2.97x    frame= 2893 fps= 71 q=-0.0 size=N/A time=00:02:00.66 bitrate=N/A speed=2.96x    frame= 2934 fps= 71 q=-0.0 size=N/A time=00:02:02.37 bitrate=N/A speed=2.97x    frame= 2971 fps= 71 q=-0.0 size=N/A time=00:02:03.91 bitrate=N/A speed=2.97x    frame= 3009 fps= 71 q=-0.0 size=N/A time=00:02:05.50 bitrate=N/A speed=2.97x    frame= 3046 fps= 71 q=-0.0 size=N/A time=00:02:07.04 bitrate=N/A speed=2.97x    frame= 3085 fps= 71 q=-0.0 size=N/A time=00:02:08.67 bitrate=N/A speed=2.97x    frame= 3117 fps= 71 q=-0.0 size=N/A time=00:02:10.00 bitrate=N/A speed=2.96x    frame= 3161 fps= 71 q=-0.0 size=N/A time=00:02:11.84 bitrate=N/A speed=2.97x    frame= 3198 fps= 71 q=-0.0 size=N/A time=00:02:13.38 bitrate=N/A speed=2.97x    frame= 3230 fps= 71 q=-0.0 size=N/A time=00:02:14.71 bitrate=N/A speed=2.97x    frame= 3275 fps= 71 q=-0.0 size=N/A time=00:02:16.59 bitrate=N/A speed=2.97x    frame= 3311 fps= 71 q=-0.0 size=N/A time=00:02:18.09 bitrate=N/A speed=2.97x    frame= 3351 fps= 71 q=-0.0 size=N/A time=00:02:19.76 bitrate=N/A speed=2.98x    frame= 3388 fps= 71 q=-0.0 size=N/A time=00:02:21.30 bitrate=N/A speed=2.98x    frame= 3427 fps= 71 q=-0.0 size=N/A time=00:02:22.93 bitrate=N/A speed=2.98x    frame= 3462 fps= 71 q=-0.0 size=N/A time=00:02:24.39 bitrate=N/A speed=2.98x    frame= 3493 fps= 71 q=-0.0 size=N/A time=00:02:25.68 bitrate=N/A speed=2.97x    frame= 3534 fps= 71 q=-0.0 size=N/A time=00:02:27.39 bitrate=N/A speed=2.98x    frame= 3570 fps= 71 q=-0.0 size=N/A time=00:02:28.89 bitrate=N/A speed=2.97x    frame= 3601 fps= 71 q=-0.0 size=N/A time=00:02:30.19 bitrate=N/A speed=2.97x    frame= 3636 fps= 71 q=-0.0 size=N/A time=00:02:31.65 bitrate=N/A speed=2.97x    frame= 3682 fps= 71 q=-0.0 size=N/A time=00:02:33.57 bitrate=N/A speed=2.98x    frame= 3716 fps= 71 q=-0.0 size=N/A time=00:02:34.98 bitrate=N/A speed=2.97x    frame= 3759 fps= 71 q=-0.0 size=N/A time=00:02:36.78 bitrate=N/A speed=2.98x    frame= 3796 fps= 71 q=-0.0 size=N/A time=00:02:38.32 bitrate=N/A speed=2.98x    frame= 3834 fps= 71 q=-0.0 size=N/A time=00:02:39.90 bitrate=N/A speed=2.98x    frame= 3868 fps= 71 q=-0.0 size=N/A time=00:02:41.32 bitrate=N/A speed=2.98x    frame= 3911 fps= 72 q=-0.0 size=N/A time=00:02:43.12 bitrate=N/A speed=2.98x    frame= 3949 fps= 72 q=-0.0 size=N/A time=00:02:44.70 bitrate=N/A speed=2.98x    frame= 3979 fps= 71 q=-0.0 size=N/A time=00:02:45.95 bitrate=N/A speed=2.98x    frame= 4018 fps= 71 q=-0.0 size=N/A time=00:02:47.58 bitrate=N/A speed=2.98x    frame= 4059 fps= 71 q=-0.0 size=N/A time=00:02:49.29 bitrate=N/A speed=2.98x    frame= 4099 fps= 72 q=-0.0 size=N/A time=00:02:50.96 bitrate=N/A speed=2.98x    frame= 4137 fps= 72 q=-0.0 size=N/A time=00:02:52.54 bitrate=N/A speed=2.98x    frame= 4166 fps= 71 q=-0.0 size=N/A time=00:02:53.75 bitrate=N/A speed=2.98x    frame= 4202 fps= 71 q=-0.0 size=N/A time=00:02:55.25 bitrate=N/A speed=2.98x    frame= 4242 fps= 71 q=-0.0 size=N/A time=00:02:56.92 bitrate=N/A speed=2.98x    frame= 4285 fps= 72 q=-0.0 size=N/A time=00:02:58.72 bitrate=N/A speed=2.99x    frame= 4323 fps= 72 q=-0.0 size=N/A time=00:03:00.30 bitrate=N/A speed=2.99x    frame= 4362 fps= 72 q=-0.0 size=N/A time=00:03:01.93 bitrate=N/A speed=2.99x    frame= 4401 fps= 72 q=-0.0 size=N/A time=00:03:03.55 bitrate=N/A speed=2.99x    frame= 4432 fps= 72 q=-0.0 size=N/A time=00:03:04.85 bitrate=N/A speed=2.99x    frame= 4477 fps= 72 q=-0.0 size=N/A time=00:03:06.72 bitrate=N/A speed=2.99x    frame= 4515 fps= 72 q=-0.0 size=N/A time=00:03:08.31 bitrate=N/A speed=2.99x    frame= 4554 fps= 72 q=-0.0 size=N/A time=00:03:09.93 bitrate=N/A speed=2.99x    frame= 4591 fps= 72 q=-0.0 size=N/A time=00:03:11.48 bitrate=N/A speed=2.99x    frame= 4629 fps= 72 q=-0.0 size=N/A time=00:03:13.06 bitrate=N/A speed=2.99x    frame= 4664 fps= 72 q=-0.0 size=N/A time=00:03:14.52 bitrate=N/A speed=2.99x    frame= 4700 fps= 72 q=-0.0 size=N/A time=00:03:16.02 bitrate=N/A speed=2.99x    frame= 4738 fps= 72 q=-0.0 size=N/A time=00:03:17.61 bitrate=N/A speed=2.99x    frame= 4782 fps= 72 q=-0.0 size=N/A time=00:03:19.44 bitrate=N/A speed=   3x    frame= 4821 fps= 72 q=-0.0 size=N/A time=00:03:21.07 bitrate=N/A speed=   3x    frame= 4857 fps= 72 q=-0.0 size=N/A time=00:03:22.57 bitrate=N/A speed=   3x    frame= 4885 fps= 72 q=-0.0 size=N/A time=00:03:23.74 bitrate=N/A speed=2.99x    frame= 4930 fps= 72 q=-0.0 size=N/A time=00:03:25.62 bitrate=N/A speed=   3x    frame= 4969 fps= 72 q=-0.0 size=N/A time=00:03:27.24 bitrate=N/A speed=   3x    frame= 5006 fps= 72 q=-0.0 size=N/A time=00:03:28.79 bitrate=N/A speed=   3x    frame= 5041 fps= 72 q=-0.0 size=N/A time=00:03:30.25 bitrate=N/A speed=   3x    frame= 5081 fps= 72 q=-0.0 size=N/A time=00:03:31.92 bitrate=N/A speed=   3x    frame= 5119 fps= 72 q=-0.0 size=N/A time=00:03:33.50 bitrate=N/A speed=   3x    frame= 5156 fps= 72 q=-0.0 size=N/A time=00:03:35.04 bitrate=N/A speed=   3x    frame= 5194 fps= 72 q=-0.0 size=N/A time=00:03:36.63 bitrate=N/A speed=   3x    frame= 5228 fps= 72 q=-0.0 size=N/A time=00:03:38.05 bitrate=N/A speed=   3x    frame= 5270 fps= 72 q=-0.0 size=N/A time=00:03:39.80 bitrate=N/A speed=   3x    frame= 5307 fps= 72 q=-0.0 size=N/A time=00:03:41.34 bitrate=N/A speed=   3x    frame= 5346 fps= 72 q=-0.0 size=N/A time=00:03:42.97 bitrate=N/A speed=   3x    frame= 5382 fps= 72 q=-0.0 size=N/A time=00:03:44.47 bitrate=N/A speed=   3x    frame= 5418 fps= 72 q=-0.0 size=N/A time=00:03:45.97 bitrate=N/A speed=   3x    frame= 5456 fps= 72 q=-0.0 size=N/A time=00:03:47.56 bitrate=N/A speed=   3x    frame= 5490 fps= 72 q=-0.0 size=N/A time=00:03:48.97 bitrate=N/A speed=   3x    frame= 5532 fps= 72 q=-0.0 size=N/A time=00:03:50.73 bitrate=N/A speed=   3x    frame= 5571 fps= 72 q=-0.0 size=N/A time=00:03:52.35 bitrate=N/A speed=   3x    frame= 5604 fps= 72 q=-0.0 size=N/A time=00:03:53.73 bitrate=N/A speed=   3x    frame= 5646 fps= 72 q=-0.0 size=N/A time=00:03:55.48 bitrate=N/A speed=   3x    frame= 5684 fps= 72 q=-0.0 size=N/A time=00:03:57.07 bitrate=N/A speed=   3x    frame= 5721 fps= 72 q=-0.0 size=N/A time=00:03:58.61 bitrate=N/A speed=   3x    frame= 5759 fps= 72 q=-0.0 size=N/A time=00:04:00.19 bitrate=N/A speed=   3x    frame= 5793 fps= 72 q=-0.0 size=N/A time=00:04:01.61 bitrate=N/A speed=   3x    frame= 5835 fps= 72 q=-0.0 size=N/A time=00:04:03.36 bitrate=N/A speed=   3x    frame= 5871 fps= 72 q=-0.0 size=N/A time=00:04:04.86 bitrate=N/A speed=   3x    frame= 5909 fps= 72 q=-0.0 size=N/A time=00:04:06.45 bitrate=N/A speed=   3x    frame= 5946 fps= 72 q=-0.0 size=N/A time=00:04:07.99 bitrate=N/A speed=   3x    frame= 5983 fps= 72 q=-0.0 size=N/A time=00:04:09.54 bitrate=N/A speed=   3x    frame= 6008 fps= 72 q=-0.0 size=N/A time=00:04:10.58 bitrate=N/A speed=   3x    frame= 6057 fps= 72 q=-0.0 size=N/A time=00:04:12.62 bitrate=N/A speed=   3x    frame= 6088 fps= 72 q=-0.0 size=N/A time=00:04:13.92 bitrate=N/A speed=   3x    frame= 6131 fps= 72 q=-0.0 size=N/A time=00:04:15.71 bitrate=N/A speed=   3x    frame= 6169 fps= 72 q=-0.0 size=N/A time=00:04:17.29 bitrate=N/A speed=   3x    frame= 6206 fps= 72 q=-0.0 size=N/A time=00:04:18.84 bitrate=N/A speed=   3x    frame= 6243 fps= 72 q=-0.0 size=N/A time=00:04:20.38 bitrate=N/A speed=   3x    frame= 6281 fps= 72 q=-0.0 size=N/A time=00:04:21.97 bitrate=N/A speed=   3x    frame= 6311 fps= 72 q=-0.0 size=N/A time=00:04:23.22 bitrate=N/A speed=   3x    frame= 6355 fps= 72 q=-0.0 size=N/A time=00:04:25.05 bitrate=N/A speed=   3x    frame= 6392 fps= 72 q=-0.0 size=N/A time=00:04:26.59 bitrate=N/A speed=   3x    frame= 6432 fps= 72 q=-0.0 size=N/A time=00:04:28.26 bitrate=N/A speed=   3x    frame= 6462 fps= 72 q=-0.0 size=N/A time=00:04:29.51 bitrate=N/A speed=   3x    frame= 6503 fps= 72 q=-0.0 size=N/A time=00:04:31.22 bitrate=N/A speed=   3x    frame= 6539 fps= 72 q=-0.0 size=N/A time=00:04:32.73 bitrate=N/A speed=   3x    frame= 6566 fps= 72 q=-0.0 size=N/A time=00:04:33.85 bitrate=N/A speed=   3x    frame= 6620 fps= 72 q=-0.0 size=N/A time=00:04:36.10 bitrate=N/A speed=3.01x    frame= 6657 fps= 72 q=-0.0 size=N/A time=00:04:37.65 bitrate=N/A speed=3.01x    frame= 6691 fps= 72 q=-0.0 size=N/A time=00:04:39.07 bitrate=N/A speed=   3x    frame= 6726 fps= 72 q=-0.0 size=N/A time=00:04:40.53 bitrate=N/A speed=   3x    frame= 6765 fps= 72 q=-0.0 size=N/A time=00:04:42.15 bitrate=N/A speed=   3x    frame= 6802 fps= 72 q=-0.0 size=N/A time=00:04:43.70 bitrate=N/A speed=   3x    frame= 6842 fps= 72 q=-0.0 size=N/A time=00:04:45.36 bitrate=N/A speed=3.01x    frame= 6880 fps= 72 q=-0.0 size=N/A time=00:04:46.95 bitrate=N/A speed=3.01x    frame= 6919 fps= 72 q=-0.0 size=N/A time=00:04:48.57 bitrate=N/A speed=3.01x    frame= 6956 fps= 72 q=-0.0 size=N/A time=00:04:50.12 bitrate=N/A speed=3.01x    frame= 6987 fps= 72 q=-0.0 size=N/A time=00:04:51.41 bitrate=N/A speed=   3x    frame= 7028 fps= 72 q=-0.0 size=N/A time=00:04:53.12 bitrate=N/A speed=3.01x    frame= 7061 fps= 72 q=-0.0 size=N/A time=00:04:54.50 bitrate=N/A speed=   3x    frame= 7103 fps= 72 q=-0.0 size=N/A time=00:04:56.25 bitrate=N/A speed=3.01x    frame= 7139 fps= 72 q=-0.0 size=N/A time=00:04:57.75 bitrate=N/A speed=3.01x    frame= 7175 fps= 72 q=-0.0 size=N/A time=00:04:59.25 bitrate=N/A speed=   3x    frame= 7208 fps= 72 q=-0.0 size=N/A time=00:05:00.63 bitrate=N/A speed=   3x    frame= 7251 fps= 72 q=-0.0 size=N/A time=00:05:02.42 bitrate=N/A speed=3.01x    frame= 7287 fps= 72 q=-0.0 size=N/A time=00:05:03.92 bitrate=N/A speed=   3x    frame= 7321 fps= 72 q=-0.0 size=N/A time=00:05:05.34 bitrate=N/A speed=   3x    frame= 7361 fps= 72 q=-0.0 size=N/A time=00:05:07.01 bitrate=N/A speed=   3x    frame= 7398 fps= 72 q=-0.0 size=N/A time=00:05:08.55 bitrate=N/A speed=   3x    frame= 7436 fps= 72 q=-0.0 size=N/A time=00:05:10.14 bitrate=N/A speed=3.01x    frame= 7471 fps= 72 q=-0.0 size=N/A time=00:05:11.60 bitrate=N/A speed=   3x    frame= 7512 fps= 72 q=-0.0 size=N/A time=00:05:13.31 bitrate=N/A speed=3.01x    frame= 7551 fps= 72 q=-0.0 size=N/A time=00:05:14.93 bitrate=N/A speed=3.01x    frame= 7589 fps= 72 q=-0.0 size=N/A time=00:05:16.52 bitrate=N/A speed=3.01x    frame= 7621 fps= 72 q=-0.0 size=N/A time=00:05:17.85 bitrate=N/A speed=   3x    frame= 7666 fps= 72 q=-0.0 size=N/A time=00:05:19.73 bitrate=N/A speed=3.01x    frame= 7701 fps= 72 q=-0.0 size=N/A time=00:05:21.19 bitrate=N/A speed=3.01x    frame= 7736 fps= 72 q=-0.0 size=N/A time=00:05:22.65 bitrate=N/A speed=3.01x    frame= 7779 fps= 72 q=-0.0 size=N/A time=00:05:24.44 bitrate=N/A speed=3.01x    frame= 7811 fps= 72 q=-0.0 size=N/A time=00:05:25.78 bitrate=N/A speed=3.01x    frame= 7852 fps= 72 q=-0.0 size=N/A time=00:05:27.49 bitrate=N/A speed=3.01x    frame= 7891 fps= 72 q=-0.0 size=N/A time=00:05:29.12 bitrate=N/A speed=3.01x    frame= 7928 fps= 72 q=-0.0 size=N/A time=00:05:30.66 bitrate=N/A speed=3.01x    frame= 7967 fps= 72 q=-0.0 size=N/A time=00:05:32.29 bitrate=N/A speed=3.01x    frame= 8004 fps= 72 q=-0.0 size=N/A time=00:05:33.83 bitrate=N/A speed=3.01x    frame= 8043 fps= 72 q=-0.0 size=N/A time=00:05:35.46 bitrate=N/A speed=3.01x    frame= 8078 fps= 72 q=-0.0 size=N/A time=00:05:36.91 bitrate=N/A speed=3.01x    frame= 8118 fps= 72 q=-0.0 size=N/A time=00:05:38.58 bitrate=N/A speed=3.01x    frame= 8157 fps= 72 q=-0.0 size=N/A time=00:05:40.21 bitrate=N/A speed=3.01x    frame= 8193 fps= 72 q=-0.0 size=N/A time=00:05:41.71 bitrate=N/A speed=3.01x    frame= 8229 fps= 72 q=-0.0 size=N/A time=00:05:43.21 bitrate=N/A speed=3.01x    frame= 8265 fps= 72 q=-0.0 size=N/A time=00:05:44.71 bitrate=N/A speed=3.01x    frame= 8301 fps= 72 q=-0.0 size=N/A time=00:05:46.22 bitrate=N/A speed=3.01x    frame= 8341 fps= 72 q=-0.0 size=N/A time=00:05:47.88 bitrate=N/A speed=3.01x    frame= 8379 fps= 72 q=-0.0 size=N/A time=00:05:49.47 bitrate=N/A speed=3.01x    frame= 8407 fps= 72 q=-0.0 size=N/A time=00:05:50.64 bitrate=N/A speed=3.01x    frame= 8451 fps= 72 q=-0.0 size=N/A time=00:05:52.47 bitrate=N/A speed=3.01x    frame= 8494 fps= 72 q=-0.0 size=N/A time=00:05:54.27 bitrate=N/A speed=3.01x    frame= 8533 fps= 72 q=-0.0 size=N/A time=00:05:55.89 bitrate=N/A speed=3.01x    frame= 8571 fps= 72 q=-0.0 size=N/A time=00:05:57.48 bitrate=N/A speed=3.01x    frame= 8604 fps= 72 q=-0.0 size=N/A time=00:05:58.85 bitrate=N/A speed=3.01x    frame= 8643 fps= 72 q=-0.0 size=N/A time=00:06:00.48 bitrate=N/A speed=3.01x    frame= 8681 fps= 72 q=-0.0 size=N/A time=00:06:02.07 bitrate=N/A speed=3.01x    frame= 8719 fps= 72 q=-0.0 size=N/A time=00:06:03.65 bitrate=N/A speed=3.01x    frame= 8756 fps= 72 q=-0.0 size=N/A time=00:06:05.19 bitrate=N/A speed=3.01x    frame= 8794 fps= 72 q=-0.0 size=N/A time=00:06:06.78 bitrate=N/A speed=3.01x    frame= 8827 fps= 72 q=-0.0 size=N/A time=00:06:08.15 bitrate=N/A speed=3.01x    frame= 8870 fps= 72 q=-0.0 size=N/A time=00:06:09.95 bitrate=N/A speed=3.01x    frame= 8910 fps= 72 q=-0.0 size=N/A time=00:06:11.62 bitrate=N/A speed=3.01x    frame= 8946 fps= 72 q=-0.0 size=N/A time=00:06:13.12 bitrate=N/A speed=3.01x    frame= 8982 fps= 72 q=-0.0 size=N/A time=00:06:14.62 bitrate=N/A speed=3.01x    frame= 9024 fps= 72 q=-0.0 size=N/A time=00:06:16.37 bitrate=N/A speed=3.01x    frame= 9062 fps= 72 q=-0.0 size=N/A time=00:06:17.96 bitrate=N/A speed=3.01x    frame= 9094 fps= 72 q=-0.0 size=N/A time=00:06:19.29 bitrate=N/A speed=3.01x    frame= 9133 fps= 72 q=-0.0 size=N/A time=00:06:20.92 bitrate=N/A speed=3.01x    frame= 9174 fps= 72 q=-0.0 size=N/A time=00:06:22.63 bitrate=N/A speed=3.01x    frame= 9213 fps= 72 q=-0.0 size=N/A time=00:06:24.25 bitrate=N/A speed=3.02x    frame= 9240 fps= 72 q=-0.0 size=N/A time=00:06:25.38 bitrate=N/A speed=3.01x    frame= 9289 fps= 72 q=-0.0 size=N/A time=00:06:27.42 bitrate=N/A speed=3.02x    frame= 9321 fps= 72 q=-0.0 size=N/A time=00:06:28.76 bitrate=N/A speed=3.01x    frame= 9361 fps= 72 q=-0.0 size=N/A time=00:06:30.43 bitrate=N/A speed=3.01x    frame= 9396 fps= 72 q=-0.0 size=N/A time=00:06:31.89 bitrate=N/A speed=3.01x    frame= 9427 fps= 72 q=-0.0 size=N/A time=00:06:33.18 bitrate=N/A speed=3.01x    frame= 9471 fps= 72 q=-0.0 size=N/A time=00:06:35.01 bitrate=N/A speed=3.01x    frame= 9508 fps= 72 q=-0.0 size=N/A time=00:06:36.56 bitrate=N/A speed=3.01x    frame= 9543 fps= 72 q=-0.0 size=N/A time=00:06:38.02 bitrate=N/A speed=3.01x    frame= 9584 fps= 72 q=-0.0 size=N/A time=00:06:39.73 bitrate=N/A speed=3.01x    frame= 9622 fps= 72 q=-0.0 size=N/A time=00:06:41.31 bitrate=N/A speed=3.01x    frame= 9653 fps= 72 q=-0.0 size=N/A time=00:06:42.61 bitrate=N/A speed=3.01x    frame= 9697 fps= 72 q=-0.0 size=N/A time=00:06:44.44 bitrate=N/A speed=3.01x    frame= 9733 fps= 72 q=-0.0 size=N/A time=00:06:45.94 bitrate=N/A speed=3.01x    frame= 9772 fps= 72 q=-0.0 size=N/A time=00:06:47.57 bitrate=N/A speed=3.02x    frame= 9811 fps= 72 q=-0.0 size=N/A time=00:06:49.20 bitrate=N/A speed=3.02x    frame= 9836 fps= 72 q=-0.0 size=N/A time=00:06:50.24 bitrate=N/A speed=3.01x    frame= 9884 fps= 72 q=-0.0 size=N/A time=00:06:52.24 bitrate=N/A speed=3.02x    frame= 9925 fps= 72 q=-0.0 size=N/A time=00:06:53.95 bitrate=N/A speed=3.02x    frame= 9963 fps= 72 q=-0.0 size=N/A time=00:06:55.54 bitrate=N/A speed=3.02x    frame=10001 fps= 72 q=-0.0 size=N/A time=00:06:57.12 bitrate=N/A speed=3.02x    frame=10040 fps= 72 q=-0.0 size=N/A time=00:06:58.75 bitrate=N/A speed=3.02x    frame=10078 fps= 72 q=-0.0 size=N/A time=00:07:00.33 bitrate=N/A speed=3.02x    frame=10117 fps= 72 q=-0.0 size=N/A time=00:07:01.96 bitrate=N/A speed=3.02x    frame=10156 fps= 72 q=-0.0 size=N/A time=00:07:03.58 bitrate=N/A speed=3.02x    frame=10193 fps= 72 q=-0.0 size=N/A time=00:07:05.13 bitrate=N/A speed=3.02x    frame=10229 fps= 72 q=-0.0 size=N/A time=00:07:06.63 bitrate=N/A speed=3.02x    frame=10272 fps= 72 q=-0.0 size=N/A time=00:07:08.42 bitrate=N/A speed=3.02x    frame=10311 fps= 72 q=-0.0 size=N/A time=00:07:10.05 bitrate=N/A speed=3.02x    frame=10345 fps= 72 q=-0.0 size=N/A time=00:07:11.47 bitrate=N/A speed=3.02x    frame=10387 fps= 72 q=-0.0 size=N/A time=00:07:13.22 bitrate=N/A speed=3.02x    frame=10427 fps= 72 q=-0.0 size=N/A time=00:07:14.89 bitrate=N/A speed=3.02x    frame=10464 fps= 72 q=-0.0 size=N/A time=00:07:16.43 bitrate=N/A speed=3.02x    frame=10499 fps= 72 q=-0.0 size=N/A time=00:07:17.89 bitrate=N/A speed=3.02x    frame=10534 fps= 72 q=-0.0 size=N/A time=00:07:19.35 bitrate=N/A speed=3.02x    frame=10577 fps= 72 q=-0.0 size=N/A time=00:07:21.14 bitrate=N/A speed=3.02x    frame=10613 fps= 72 q=-0.0 size=N/A time=00:07:22.65 bitrate=N/A speed=3.02x    frame=10653 fps= 72 q=-0.0 size=N/A time=00:07:24.31 bitrate=N/A speed=3.02x    frame=10690 fps= 72 q=-0.0 size=N/A time=00:07:25.86 bitrate=N/A speed=3.02x    frame=10729 fps= 72 q=-0.0 size=N/A time=00:07:27.48 bitrate=N/A speed=3.02x    frame=10766 fps= 72 q=-0.0 size=N/A time=00:07:29.03 bitrate=N/A speed=3.02x    frame=10805 fps= 72 q=-0.0 size=N/A time=00:07:30.65 bitrate=N/A speed=3.02x    frame=10841 fps= 72 q=-0.0 size=N/A time=00:07:32.16 bitrate=N/A speed=3.02x    frame=10881 fps= 72 q=-0.0 size=N/A time=00:07:33.82 bitrate=N/A speed=3.02x    frame=10919 fps= 72 q=-0.0 size=N/A time=00:07:35.41 bitrate=N/A speed=3.02x    frame=10952 fps= 72 q=-0.0 size=N/A time=00:07:36.78 bitrate=N/A speed=3.02x    frame=10994 fps= 72 q=-0.0 size=N/A time=00:07:38.54 bitrate=N/A speed=3.02x    frame=11031 fps= 72 q=-0.0 size=N/A time=00:07:40.08 bitrate=N/A speed=3.02x    frame=11069 fps= 72 q=-0.0 size=N/A time=00:07:41.66 bitrate=N/A speed=3.02x    frame=11106 fps= 72 q=-0.0 size=N/A time=00:07:43.21 bitrate=N/A speed=3.02x    frame=11142 fps= 72 q=-0.0 size=N/A time=00:07:44.71 bitrate=N/A speed=3.02x    frame=11182 fps= 72 q=-0.0 size=N/A time=00:07:46.38 bitrate=N/A speed=3.02x    frame=11220 fps= 72 q=-0.0 size=N/A time=00:07:47.96 bitrate=N/A speed=3.02x    frame=11252 fps= 72 q=-0.0 size=N/A time=00:07:49.30 bitrate=N/A speed=3.02x    frame=11294 fps= 72 q=-0.0 size=N/A time=00:07:51.05 bitrate=N/A speed=3.02x    frame=11334 fps= 72 q=-0.0 size=N/A time=00:07:52.72 bitrate=N/A speed=3.02x    frame=11371 fps= 72 q=-0.0 size=N/A time=00:07:54.26 bitrate=N/A speed=3.02x    frame=11403 fps= 72 q=-0.0 size=N/A time=00:07:55.60 bitrate=N/A speed=3.02x    frame=11449 fps= 73 q=-0.0 size=N/A time=00:07:57.51 bitrate=N/A speed=3.02x    frame=11484 fps= 72 q=-0.0 size=N/A time=00:07:58.97 bitrate=N/A speed=3.02x    frame=11524 fps= 73 q=-0.0 size=N/A time=00:08:00.64 bitrate=N/A speed=3.02x    frame=11562 fps= 73 q=-0.0 size=N/A time=00:08:02.23 bitrate=N/A speed=3.02x    frame=11599 fps= 73 q=-0.0 size=N/A time=00:08:03.77 bitrate=N/A speed=3.02x    frame=11638 fps= 73 q=-0.0 size=N/A time=00:08:05.40 bitrate=N/A speed=3.02x    frame=11670 fps= 72 q=-0.0 size=N/A time=00:08:06.73 bitrate=N/A speed=3.02x    frame=11715 fps= 73 q=-0.0 size=N/A time=00:08:08.61 bitrate=N/A speed=3.03x    frame=11754 fps= 73 q=-0.0 size=N/A time=00:08:10.23 bitrate=N/A speed=3.03x    frame=11788 fps= 73 q=-0.0 size=N/A time=00:08:11.65 bitrate=N/A speed=3.03x    frame=11827 fps= 73 q=-0.0 size=N/A time=00:08:13.28 bitrate=N/A speed=3.03x    frame=11873 fps= 73 q=-0.0 size=N/A time=00:08:15.20 bitrate=N/A speed=3.03x    frame=11910 fps= 73 q=-0.0 size=N/A time=00:08:16.74 bitrate=N/A speed=3.03x    frame=11950 fps= 73 q=-0.0 size=N/A time=00:08:18.41 bitrate=N/A speed=3.03x    frame=11987 fps= 73 q=-0.0 size=N/A time=00:08:19.95 bitrate=N/A speed=3.03x    frame=12026 fps= 73 q=-0.0 size=N/A time=00:08:21.58 bitrate=N/A speed=3.03x    frame=12064 fps= 73 q=-0.0 size=N/A time=00:08:23.16 bitrate=N/A speed=3.03x    frame=12104 fps= 73 q=-0.0 size=N/A time=00:08:24.83 bitrate=N/A speed=3.03x    frame=12141 fps= 73 q=-0.0 size=N/A time=00:08:26.38 bitrate=N/A speed=3.03x    frame=12181 fps= 73 q=-0.0 size=N/A time=00:08:28.04 bitrate=N/A speed=3.03x    frame=12215 fps= 73 q=-0.0 size=N/A time=00:08:29.46 bitrate=N/A speed=3.03x    frame=12256 fps= 73 q=-0.0 size=N/A time=00:08:31.17 bitrate=N/A speed=3.03x    frame=12291 fps= 73 q=-0.0 size=N/A time=00:08:32.63 bitrate=N/A speed=3.03x    frame=12334 fps= 73 q=-0.0 size=N/A time=00:08:34.43 bitrate=N/A speed=3.03x    frame=12372 fps= 73 q=-0.0 size=N/A time=00:08:36.01 bitrate=N/A speed=3.03x    frame=12411 fps= 73 q=-0.0 size=N/A time=00:08:37.64 bitrate=N/A speed=3.03x    frame=12442 fps= 73 q=-0.0 size=N/A time=00:08:38.93 bitrate=N/A speed=3.03x    frame=12487 fps= 73 q=-0.0 size=N/A time=00:08:40.81 bitrate=N/A speed=3.03x    frame=12523 fps= 73 q=-0.0 size=N/A time=00:08:42.31 bitrate=N/A speed=3.03x    frame=12557 fps= 73 q=-0.0 size=N/A time=00:08:43.73 bitrate=N/A speed=3.03x    frame=12595 fps= 73 q=-0.0 size=N/A time=00:08:45.31 bitrate=N/A speed=3.03x    frame=12632 fps= 73 q=-0.0 size=N/A time=00:08:46.85 bitrate=N/A speed=3.03x    frame=12668 fps= 73 q=-0.0 size=N/A time=00:08:48.36 bitrate=N/A speed=3.03x    frame=12705 fps= 73 q=-0.0 size=N/A time=00:08:49.90 bitrate=N/A speed=3.03x    frame=12743 fps= 73 q=-0.0 size=N/A time=00:08:51.48 bitrate=N/A speed=3.03x    frame=12780 fps= 73 q=-0.0 size=N/A time=00:08:53.03 bitrate=N/A speed=3.03x    frame=12817 fps= 73 q=-0.0 size=N/A time=00:08:54.57 bitrate=N/A speed=3.03x    frame=12855 fps= 73 q=-0.0 size=N/A time=00:08:56.16 bitrate=N/A speed=3.03x    frame=12889 fps= 73 q=-0.0 size=N/A time=00:08:57.57 bitrate=N/A speed=3.03x    frame=12930 fps= 73 q=-0.0 size=N/A time=00:08:59.28 bitrate=N/A speed=3.03x    frame=12968 fps= 73 q=-0.0 size=N/A time=00:09:00.87 bitrate=N/A speed=3.03x    frame=13004 fps= 73 q=-0.0 size=N/A time=00:09:02.37 bitrate=N/A speed=3.03x    frame=13040 fps= 73 q=-0.0 size=N/A time=00:09:03.87 bitrate=N/A speed=3.03x    frame=13078 fps= 73 q=-0.0 size=N/A time=00:09:05.46 bitrate=N/A speed=3.03x    frame=13116 fps= 73 q=-0.0 size=N/A time=00:09:07.04 bitrate=N/A speed=3.03x    frame=13149 fps= 73 q=-0.0 size=N/A time=00:09:08.42 bitrate=N/A speed=3.03x    frame=13191 fps= 73 q=-0.0 size=N/A time=00:09:10.17 bitrate=N/A speed=3.03x    frame=13231 fps= 73 q=-0.0 size=N/A time=00:09:11.84 bitrate=N/A speed=3.03x    frame=13269 fps= 73 q=-0.0 size=N/A time=00:09:13.42 bitrate=N/A speed=3.03x    frame=13302 fps= 73 q=-0.0 size=N/A time=00:09:14.80 bitrate=N/A speed=3.03x    frame=13338 fps= 73 q=-0.0 size=N/A time=00:09:16.30 bitrate=N/A speed=3.03x    frame=13377 fps= 73 q=-0.0 size=N/A time=00:09:17.93 bitrate=N/A speed=3.03x    frame=13420 fps= 73 q=-0.0 size=N/A time=00:09:19.72 bitrate=N/A speed=3.03x    frame=13457 fps= 73 q=-0.0 size=N/A time=00:09:21.26 bitrate=N/A speed=3.03x    frame=13495 fps= 73 q=-0.0 size=N/A time=00:09:22.85 bitrate=N/A speed=3.03x    frame=13528 fps= 73 q=-0.0 size=N/A time=00:09:24.23 bitrate=N/A speed=3.03x    frame=13555 fps= 73 q=-0.0 size=N/A time=00:09:25.35 bitrate=N/A speed=3.03x    frame=13605 fps= 73 q=-0.0 size=N/A time=00:09:27.44 bitrate=N/A speed=3.03x    frame=13644 fps= 73 q=-0.0 size=N/A time=00:09:29.06 bitrate=N/A speed=3.03x    frame=13682 fps= 73 q=-0.0 size=N/A time=00:09:30.65 bitrate=N/A speed=3.03x    frame=13716 fps= 73 q=-0.0 size=N/A time=00:09:32.07 bitrate=N/A speed=3.03x    frame=13757 fps= 73 q=-0.0 size=N/A time=00:09:33.78 bitrate=N/A speed=3.03x    frame=13796 fps= 73 q=-0.0 size=N/A time=00:09:35.40 bitrate=N/A speed=3.03x    frame=13835 fps= 73 q=-0.0 size=N/A time=00:09:37.03 bitrate=N/A speed=3.03x    frame=13874 fps= 73 q=-0.0 size=N/A time=00:09:38.66 bitrate=N/A speed=3.03x    frame=13908 fps= 73 q=-0.0 size=N/A time=00:09:40.07 bitrate=N/A speed=3.03x    frame=13951 fps= 73 q=-0.0 size=N/A time=00:09:41.87 bitrate=N/A speed=3.03x    frame=13991 fps= 73 q=-0.0 size=N/A time=00:09:43.54 bitrate=N/A speed=3.03x    frame=14029 fps= 73 q=-0.0 size=N/A time=00:09:45.12 bitrate=N/A speed=3.03x    frame=14068 fps= 73 q=-0.0 size=N/A time=00:09:46.75 bitrate=N/A speed=3.03x    frame=14100 fps= 73 q=-0.0 size=N/A time=00:09:48.08 bitrate=N/A speed=3.03x    frame=14136 fps= 73 q=-0.0 size=N/A time=00:09:49.58 bitrate=N/A speed=3.03x    frame=14181 fps= 73 q=-0.0 size=N/A time=00:09:51.46 bitrate=N/A speed=3.03x    frame=14218 fps= 73 q=-0.0 size=N/A time=00:09:53.00 bitrate=N/A speed=3.03x    frame=14256 fps= 73 q=-0.0 size=N/A time=00:09:54.59 bitrate=N/A speed=3.03x    frame=14294 fps= 73 q=-0.0 size=N/A time=00:09:56.17 bitrate=N/A speed=3.03x    frame=14332 fps= 73 q=-0.0 size=N/A time=00:09:57.76 bitrate=N/A speed=3.03x    frame=14370 fps= 73 q=-0.0 size=N/A time=00:09:59.34 bitrate=N/A speed=3.03x    frame=14407 fps= 73 q=-0.0 size=N/A time=00:10:00.89 bitrate=N/A speed=3.03x    frame=14444 fps= 73 q=-0.0 size=N/A time=00:10:02.43 bitrate=N/A speed=3.03x    frame=14482 fps= 73 q=-0.0 size=N/A time=00:10:04.02 bitrate=N/A speed=3.03x    frame=14515 fps= 73 q=-0.0 size=N/A time=00:10:05.39 bitrate=N/A speed=3.03x    frame=14559 fps= 73 q=-0.0 size=N/A time=00:10:07.23 bitrate=N/A speed=3.03x    frame=14595 fps= 73 q=-0.0 size=N/A time=00:10:08.73 bitrate=N/A speed=3.03x    frame=14632 fps= 73 q=-0.0 size=N/A time=00:10:10.27 bitrate=N/A speed=3.03x    frame=14669 fps= 73 q=-0.0 size=N/A time=00:10:11.81 bitrate=N/A speed=3.03x    frame=14703 fps= 73 q=-0.0 size=N/A time=00:10:13.23 bitrate=N/A speed=3.03x    frame=14745 fps= 73 q=-0.0 size=N/A time=00:10:14.98 bitrate=N/A speed=3.03x    frame=14783 fps= 73 q=-0.0 size=N/A time=00:10:16.57 bitrate=N/A speed=3.03x    frame=14813 fps= 73 q=-0.0 size=N/A time=00:10:17.82 bitrate=N/A speed=3.03x    frame=14857 fps= 73 q=-0.0 size=N/A time=00:10:19.66 bitrate=N/A speed=3.03x    frame=14894 fps= 73 q=-0.0 size=N/A time=00:10:21.20 bitrate=N/A speed=3.03x    frame=14932 fps= 73 q=-0.0 size=N/A time=00:10:22.78 bitrate=N/A speed=3.03x    frame=14961 fps= 73 q=-0.0 size=N/A time=00:10:23.99 bitrate=N/A speed=3.03x    frame=15007 fps= 73 q=-0.0 size=N/A time=00:10:25.91 bitrate=N/A speed=3.03x    frame=15041 fps= 73 q=-0.0 size=N/A time=00:10:27.33 bitrate=N/A speed=3.03x    frame=15081 fps= 73 q=-0.0 size=N/A time=00:10:29.00 bitrate=N/A speed=3.03x    frame=15118 fps= 73 q=-0.0 size=N/A time=00:10:30.54 bitrate=N/A speed=3.03x    frame=15154 fps= 73 q=-0.0 size=N/A time=00:10:32.04 bitrate=N/A speed=3.03x    frame=15189 fps= 73 q=-0.0 size=N/A time=00:10:33.50 bitrate=N/A speed=3.03x    frame=15229 fps= 73 q=-0.0 size=N/A time=00:10:35.17 bitrate=N/A speed=3.03x    frame=15255 fps= 73 q=-0.0 size=N/A time=00:10:36.26 bitrate=N/A speed=3.03x    frame=15297 fps= 73 q=-0.0 size=N/A time=00:10:38.01 bitrate=N/A speed=3.03x    frame=15331 fps= 73 q=-0.0 size=N/A time=00:10:39.43 bitrate=N/A speed=3.03x    frame=15379 fps= 73 q=-0.0 size=N/A time=00:10:41.43 bitrate=N/A speed=3.03x    frame=15414 fps= 73 q=-0.0 size=N/A time=00:10:42.89 bitrate=N/A speed=3.03x    frame=15448 fps= 73 q=-0.0 size=N/A time=00:10:44.31 bitrate=N/A speed=3.03x    frame=15483 fps= 73 q=-0.0 size=N/A time=00:10:45.77 bitrate=N/A speed=3.03x    frame=15526 fps= 73 q=-0.0 size=N/A time=00:10:47.56 bitrate=N/A speed=3.03x    frame=15563 fps= 73 q=-0.0 size=N/A time=00:10:49.10 bitrate=N/A speed=3.03x    frame=15589 fps= 73 q=-0.0 size=N/A time=00:10:50.19 bitrate=N/A speed=3.03x    frame=15638 fps= 73 q=-0.0 size=N/A time=00:10:52.23 bitrate=N/A speed=3.03x    frame=15674 fps= 73 q=-0.0 size=N/A time=00:10:53.73 bitrate=N/A speed=3.03x    frame=15709 fps= 73 q=-0.0 size=N/A time=00:10:55.19 bitrate=N/A speed=3.03x    frame=15749 fps= 73 q=-0.0 size=N/A time=00:10:56.86 bitrate=N/A speed=3.03x    frame=15786 fps= 73 q=-0.0 size=N/A time=00:10:58.40 bitrate=N/A speed=3.03x    frame=15821 fps= 73 q=-0.0 size=N/A time=00:10:59.86 bitrate=N/A speed=3.03x    frame=15861 fps= 73 q=-0.0 size=N/A time=00:11:01.53 bitrate=N/A speed=3.03x    frame=15899 fps= 73 q=-0.0 size=N/A time=00:11:03.12 bitrate=N/A speed=3.03x    frame=15935 fps= 73 q=-0.0 size=N/A time=00:11:04.62 bitrate=N/A speed=3.03x    frame=15974 fps= 73 q=-0.0 size=N/A time=00:11:06.24 bitrate=N/A speed=3.03x    frame=16012 fps= 73 q=-0.0 size=N/A time=00:11:07.83 bitrate=N/A speed=3.03x    frame=16051 fps= 73 q=-0.0 size=N/A time=00:11:09.46 bitrate=N/A speed=3.03x    frame=16087 fps= 73 q=-0.0 size=N/A time=00:11:10.96 bitrate=N/A speed=3.03x    frame=16123 fps= 73 q=-0.0 size=N/A time=00:11:12.46 bitrate=N/A speed=3.03x    frame=16159 fps= 73 q=-0.0 size=N/A time=00:11:13.96 bitrate=N/A speed=3.03x    frame=16204 fps= 73 q=-0.0 size=N/A time=00:11:15.84 bitrate=N/A speed=3.03x    frame=16242 fps= 73 q=-0.0 size=N/A time=00:11:17.42 bitrate=N/A speed=3.03x    frame=16282 fps= 73 q=-0.0 size=N/A time=00:11:19.09 bitrate=N/A speed=3.03x    frame=16314 fps= 73 q=-0.0 size=N/A time=00:11:20.42 bitrate=N/A speed=3.03x    frame=16356 fps= 73 q=-0.0 size=N/A time=00:11:22.18 bitrate=N/A speed=3.03x    frame=16392 fps= 73 q=-0.0 size=N/A time=00:11:23.68 bitrate=N/A speed=3.03x    frame=16429 fps= 73 q=-0.0 size=N/A time=00:11:25.22 bitrate=N/A speed=3.03x    frame=16469 fps= 73 q=-0.0 size=N/A time=00:11:26.89 bitrate=N/A speed=3.03x    frame=16507 fps= 73 q=-0.0 size=N/A time=00:11:28.47 bitrate=N/A speed=3.03x    frame=16545 fps= 73 q=-0.0 size=N/A time=00:11:30.06 bitrate=N/A speed=3.03x    frame=16583 fps= 73 q=-0.0 size=N/A time=00:11:31.64 bitrate=N/A speed=3.03x    frame=16622 fps= 73 q=-0.0 size=N/A time=00:11:33.27 bitrate=N/A speed=3.03x    frame=16660 fps= 73 q=-0.0 size=N/A time=00:11:34.86 bitrate=N/A speed=3.03x    frame=16696 fps= 73 q=-0.0 size=N/A time=00:11:36.36 bitrate=N/A speed=3.03x    frame=16736 fps= 73 q=-0.0 size=N/A time=00:11:38.03 bitrate=N/A speed=3.03x    frame=16773 fps= 73 q=-0.0 size=N/A time=00:11:39.57 bitrate=N/A speed=3.03x    frame=16808 fps= 73 q=-0.0 size=N/A time=00:11:41.03 bitrate=N/A speed=3.03x    frame=16837 fps= 73 q=-0.0 size=N/A time=00:11:42.24 bitrate=N/A speed=3.03x    frame=16883 fps= 73 q=-0.0 size=N/A time=00:11:44.16 bitrate=N/A speed=3.03x    frame=16921 fps= 73 q=-0.0 size=N/A time=00:11:45.74 bitrate=N/A speed=3.03x    frame=16958 fps= 73 q=-0.0 size=N/A time=00:11:47.28 bitrate=N/A speed=3.03x    frame=16994 fps= 73 q=-0.0 size=N/A time=00:11:48.79 bitrate=N/A speed=3.03x    frame=17029 fps= 73 q=-0.0 size=N/A time=00:11:50.25 bitrate=N/A speed=3.03x    frame=17065 fps= 73 q=-0.0 size=N/A time=00:11:51.75 bitrate=N/A speed=3.03x    frame=17110 fps= 73 q=-0.0 size=N/A time=00:11:53.62 bitrate=N/A speed=3.03x    frame=17148 fps= 73 q=-0.0 size=N/A time=00:11:55.21 bitrate=N/A speed=3.03x    frame=17184 fps= 73 q=-0.0 size=N/A time=00:11:56.71 bitrate=N/A speed=3.03x    frame=17225 fps= 73 q=-0.0 size=N/A time=00:11:58.42 bitrate=N/A speed=3.03x    frame=17262 fps= 73 q=-0.0 size=N/A time=00:11:59.96 bitrate=N/A speed=3.03x    frame=17300 fps= 73 q=-0.0 size=N/A time=00:12:01.55 bitrate=N/A speed=3.03x    frame=17338 fps= 73 q=-0.0 size=N/A time=00:12:03.13 bitrate=N/A speed=3.03x    frame=17374 fps= 73 q=-0.0 size=N/A time=00:12:04.64 bitrate=N/A speed=3.03x    frame=17412 fps= 73 q=-0.0 size=N/A time=00:12:06.22 bitrate=N/A speed=3.03x    frame=17450 fps= 73 q=-0.0 size=N/A time=00:12:07.81 bitrate=N/A speed=3.03x    frame=17489 fps= 73 q=-0.0 size=N/A time=00:12:09.43 bitrate=N/A speed=3.03x    frame=17529 fps= 73 q=-0.0 size=N/A time=00:12:11.10 bitrate=N/A speed=3.03x    frame=17568 fps= 73 q=-0.0 size=N/A time=00:12:12.73 bitrate=N/A speed=3.03x    frame=17602 fps= 73 q=-0.0 size=N/A time=00:12:14.15 bitrate=N/A speed=3.03x    frame=17644 fps= 73 q=-0.0 size=N/A time=00:12:15.90 bitrate=N/A speed=3.03x    frame=17682 fps= 73 q=-0.0 size=N/A time=00:12:17.48 bitrate=N/A speed=3.04x    frame=17717 fps= 73 q=-0.0 size=N/A time=00:12:18.94 bitrate=N/A speed=3.03x    frame=17758 fps= 73 q=-0.0 size=N/A time=00:12:20.65 bitrate=N/A speed=3.04x    frame=17795 fps= 73 q=-0.0 size=N/A time=00:12:22.19 bitrate=N/A speed=3.04x    frame=17829 fps= 73 q=-0.0 size=N/A time=00:12:23.61 bitrate=N/A speed=3.03x    frame=17869 fps= 73 q=-0.0 size=N/A time=00:12:25.28 bitrate=N/A speed=3.03x    frame=17904 fps= 73 q=-0.0 size=N/A time=00:12:26.74 bitrate=N/A speed=3.03x    frame=17941 fps= 73 q=-0.0 size=N/A time=00:12:28.28 bitrate=N/A speed=3.03x    frame=17973 fps= 73 q=-0.0 size=N/A time=00:12:29.62 bitrate=N/A speed=3.03x    frame=18017 fps= 73 q=-0.0 size=N/A time=00:12:31.45 bitrate=N/A speed=3.03x    frame=18057 fps= 73 q=-0.0 size=N/A time=00:12:33.12 bitrate=N/A speed=3.03x    frame=18094 fps= 73 q=-0.0 size=N/A time=00:12:34.67 bitrate=N/A speed=3.03x    frame=18128 fps= 73 q=-0.0 size=N/A time=00:12:36.08 bitrate=N/A speed=3.03x    frame=18171 fps= 73 q=-0.0 size=N/A time=00:12:37.88 bitrate=N/A speed=3.04x    frame=18207 fps= 73 q=-0.0 size=N/A time=00:12:39.38 bitrate=N/A speed=3.03x    frame=18247 fps= 73 q=-0.0 size=N/A time=00:12:41.05 bitrate=N/A speed=3.04x    frame=18280 fps= 73 q=-0.0 size=N/A time=00:12:42.42 bitrate=N/A speed=3.03x    frame=18326 fps= 73 q=-0.0 size=N/A time=00:12:44.34 bitrate=N/A speed=3.04x    frame=18363 fps= 73 q=-0.0 size=N/A time=00:12:45.89 bitrate=N/A speed=3.04x    frame=18403 fps= 73 q=-0.0 size=N/A time=00:12:47.55 bitrate=N/A speed=3.04x    frame=18440 fps= 73 q=-0.0 size=N/A time=00:12:49.10 bitrate=N/A speed=3.04x    frame=18481 fps= 73 q=-0.0 size=N/A time=00:12:50.81 bitrate=N/A speed=3.04x    frame=18520 fps= 73 q=-0.0 size=N/A time=00:12:52.43 bitrate=N/A speed=3.04x    frame=18550 fps= 73 q=-0.0 size=N/A time=00:12:53.68 bitrate=N/A speed=3.04x    frame=18595 fps= 73 q=-0.0 size=N/A time=00:12:55.56 bitrate=N/A speed=3.04x    frame=18634 fps= 73 q=-0.0 size=N/A time=00:12:57.19 bitrate=N/A speed=3.04x    frame=18671 fps= 73 q=-0.0 size=N/A time=00:12:58.73 bitrate=N/A speed=3.04x    frame=18710 fps= 73 q=-0.0 size=N/A time=00:13:00.36 bitrate=N/A speed=3.04x    frame=18747 fps= 73 q=-0.0 size=N/A time=00:13:01.90 bitrate=N/A speed=3.04x    frame=18784 fps= 73 q=-0.0 size=N/A time=00:13:03.44 bitrate=N/A speed=3.04x    frame=18829 fps= 73 q=-0.0 size=N/A time=00:13:05.32 bitrate=N/A speed=3.04x    frame=18867 fps= 73 q=-0.0 size=N/A time=00:13:06.91 bitrate=N/A speed=3.04x    frame=18900 fps= 73 q=-0.0 size=N/A time=00:13:08.28 bitrate=N/A speed=3.04x    frame=18941 fps= 73 q=-0.0 size=N/A time=00:13:09.99 bitrate=N/A speed=3.04x    frame=18979 fps= 73 q=-0.0 size=N/A time=00:13:11.58 bitrate=N/A speed=3.04x    frame=19017 fps= 73 q=-0.0 size=N/A time=00:13:13.16 bitrate=N/A speed=3.04x    frame=19055 fps= 73 q=-0.0 size=N/A time=00:13:14.75 bitrate=N/A speed=3.04x    frame=19087 fps= 73 q=-0.0 size=N/A time=00:13:16.08 bitrate=N/A speed=3.04x    frame=19123 fps= 73 q=-0.0 size=N/A time=00:13:17.58 bitrate=N/A speed=3.04x    frame=19168 fps= 73 q=-0.0 size=N/A time=00:13:19.46 bitrate=N/A speed=3.04x    frame=19200 fps= 73 q=-0.0 size=N/A time=00:13:20.80 bitrate=N/A speed=3.04x    frame=19246 fps= 73 q=-0.0 size=N/A time=00:13:22.71 bitrate=N/A speed=3.04x    frame=19281 fps= 73 q=-0.0 size=N/A time=00:13:24.17 bitrate=N/A speed=3.04x    frame=19321 fps= 73 q=-0.0 size=N/A time=00:13:25.84 bitrate=N/A speed=3.04x    frame=19362 fps= 73 q=-0.0 size=N/A time=00:13:27.55 bitrate=N/A speed=3.04x    frame=19400 fps= 73 q=-0.0 size=N/A time=00:13:29.14 bitrate=N/A speed=3.04x    frame=19437 fps= 73 q=-0.0 size=N/A time=00:13:30.68 bitrate=N/A speed=3.04x    frame=19475 fps= 73 q=-0.0 size=N/A time=00:13:32.26 bitrate=N/A speed=3.04x    frame=19516 fps= 73 q=-0.0 size=N/A time=00:13:33.97 bitrate=N/A speed=3.04x    frame=19550 fps= 73 q=-0.0 size=N/A time=00:13:35.39 bitrate=N/A speed=3.04x    frame=19593 fps= 73 q=-0.0 size=N/A time=00:13:37.19 bitrate=N/A speed=3.04x    frame=19631 fps= 73 q=-0.0 size=N/A time=00:13:38.77 bitrate=N/A speed=3.04x    frame=19670 fps= 73 q=-0.0 size=N/A time=00:13:40.40 bitrate=N/A speed=3.04x    frame=19709 fps= 73 q=-0.0 size=N/A time=00:13:42.02 bitrate=N/A speed=3.04x    frame=19746 fps= 73 q=-0.0 size=N/A time=00:13:43.57 bitrate=N/A speed=3.04x    frame=19786 fps= 73 q=-0.0 size=N/A time=00:13:45.24 bitrate=N/A speed=3.04x    frame=19826 fps= 73 q=-0.0 size=N/A time=00:13:46.90 bitrate=N/A speed=3.04x    frame=19865 fps= 73 q=-0.0 size=N/A time=00:13:48.53 bitrate=N/A speed=3.04x    frame=19904 fps= 73 q=-0.0 size=N/A time=00:13:50.16 bitrate=N/A speed=3.04x    frame=19936 fps= 73 q=-0.0 size=N/A time=00:13:51.49 bitrate=N/A speed=3.04x    frame=19980 fps= 73 q=-0.0 size=N/A time=00:13:53.33 bitrate=N/A speed=3.04x    frame=20013 fps= 73 q=-0.0 size=N/A time=00:13:54.70 bitrate=N/A speed=3.04x    frame=20057 fps= 73 q=-0.0 size=N/A time=00:13:56.54 bitrate=N/A speed=3.04x    frame=20097 fps= 73 q=-0.0 size=N/A time=00:13:58.21 bitrate=N/A speed=3.04x    frame=20133 fps= 73 q=-0.0 size=N/A time=00:13:59.71 bitrate=N/A speed=3.04x    frame=20172 fps= 73 q=-0.0 size=N/A time=00:14:01.34 bitrate=N/A speed=3.04x    frame=20211 fps= 73 q=-0.0 size=N/A time=00:14:02.96 bitrate=N/A speed=3.04x    frame=20250 fps= 73 q=-0.0 size=N/A time=00:14:04.59 bitrate=N/A speed=3.04x    frame=20289 fps= 73 q=-0.0 size=N/A time=00:14:06.22 bitrate=N/A speed=3.04x    frame=20322 fps= 73 q=-0.0 size=N/A time=00:14:07.59 bitrate=N/A speed=3.04x    frame=20366 fps= 73 q=-0.0 size=N/A time=00:14:09.43 bitrate=N/A speed=3.04x    frame=20405 fps= 73 q=-0.0 size=N/A time=00:14:11.05 bitrate=N/A speed=3.04x    frame=20444 fps= 73 q=-0.0 size=N/A time=00:14:12.68 bitrate=N/A speed=3.04x    frame=20482 fps= 73 q=-0.0 size=N/A time=00:14:14.27 bitrate=N/A speed=3.04x    frame=20521 fps= 73 q=-0.0 size=N/A time=00:14:15.89 bitrate=N/A speed=3.04x    frame=20560 fps= 73 q=-0.0 size=N/A time=00:14:17.52 bitrate=N/A speed=3.04x    frame=20593 fps= 73 q=-0.0 size=N/A time=00:14:18.89 bitrate=N/A speed=3.04x    frame=20638 fps= 73 q=-0.0 size=N/A time=00:14:20.77 bitrate=N/A speed=3.04x    frame=20676 fps= 73 q=-0.0 size=N/A time=00:14:22.36 bitrate=N/A speed=3.04x    frame=20708 fps= 73 q=-0.0 size=N/A time=00:14:23.69 bitrate=N/A speed=3.04x    frame=20752 fps= 73 q=-0.0 size=N/A time=00:14:25.53 bitrate=N/A speed=3.04x    frame=20790 fps= 73 q=-0.0 size=N/A time=00:14:27.11 bitrate=N/A speed=3.04x    frame=20829 fps= 73 q=-0.0 size=N/A time=00:14:28.74 bitrate=N/A speed=3.05x    frame=20861 fps= 73 q=-0.0 size=N/A time=00:14:30.07 bitrate=N/A speed=3.04x    frame=20906 fps= 73 q=-0.0 size=N/A time=00:14:31.95 bitrate=N/A speed=3.05x    frame=20946 fps= 73 q=-0.0 size=N/A time=00:14:33.62 bitrate=N/A speed=3.05x    frame=20984 fps= 73 q=-0.0 size=N/A time=00:14:35.20 bitrate=N/A speed=3.05x    frame=21023 fps= 73 q=-0.0 size=N/A time=00:14:36.83 bitrate=N/A speed=3.05x    frame=21059 fps= 73 q=-0.0 size=N/A time=00:14:38.33 bitrate=N/A speed=3.05x    frame=21100 fps= 73 q=-0.0 size=N/A time=00:14:40.04 bitrate=N/A speed=3.05x    frame=21132 fps= 73 q=-0.0 size=N/A time=00:14:41.38 bitrate=N/A speed=3.05x    frame=21175 fps= 73 q=-0.0 size=N/A time=00:14:43.17 bitrate=N/A speed=3.05x    frame=21212 fps= 73 q=-0.0 size=N/A time=00:14:44.71 bitrate=N/A speed=3.05x    frame=21239 fps= 73 q=-0.0 size=N/A time=00:14:45.84 bitrate=N/A speed=3.04x    frame=21288 fps= 73 q=-0.0 size=N/A time=00:14:47.88 bitrate=N/A speed=3.05x    frame=21321 fps= 73 q=-0.0 size=N/A time=00:14:49.26 bitrate=N/A speed=3.05x    frame=21366 fps= 73 q=-0.0 size=N/A time=00:14:51.14 bitrate=N/A speed=3.05x    frame=21402 fps= 73 q=-0.0 size=N/A time=00:14:52.64 bitrate=N/A speed=3.05x    frame=21444 fps= 73 q=-0.0 size=N/A time=00:14:54.39 bitrate=N/A speed=3.05x    frame=21483 fps= 73 q=-0.0 size=N/A time=00:14:56.02 bitrate=N/A speed=3.05x    frame=21519 fps= 73 q=-0.0 size=N/A time=00:14:57.52 bitrate=N/A speed=3.05x    frame=21562 fps= 73 q=-0.0 size=N/A time=00:14:59.31 bitrate=N/A speed=3.05x    frame=21594 fps= 73 q=-0.0 size=N/A time=00:15:00.64 bitrate=N/A speed=3.05x    frame=21639 fps= 73 q=-0.0 size=N/A time=00:15:02.52 bitrate=N/A speed=3.05x    frame=21673 fps= 73 q=-0.0 size=N/A time=00:15:03.94 bitrate=N/A speed=3.05x    frame=21715 fps= 73 q=-0.0 size=N/A time=00:15:05.69 bitrate=N/A speed=3.05x    frame=21753 fps= 73 q=-0.0 size=N/A time=00:15:07.28 bitrate=N/A speed=3.05x    frame=21790 fps= 73 q=-0.0 size=N/A time=00:15:08.82 bitrate=N/A speed=3.05x    frame=21828 fps= 73 q=-0.0 size=N/A time=00:15:10.40 bitrate=N/A speed=3.05x    frame=21867 fps= 73 q=-0.0 size=N/A time=00:15:12.03 bitrate=N/A speed=3.05x    frame=21905 fps= 73 q=-0.0 size=N/A time=00:15:13.62 bitrate=N/A speed=3.05x    frame=21945 fps= 73 q=-0.0 size=N/A time=00:15:15.28 bitrate=N/A speed=3.05x    frame=21986 fps= 73 q=-0.0 size=N/A time=00:15:16.99 bitrate=N/A speed=3.05x    frame=22022 fps= 73 q=-0.0 size=N/A time=00:15:18.50 bitrate=N/A speed=3.05x    frame=22063 fps= 73 q=-0.0 size=N/A time=00:15:20.21 bitrate=N/A speed=3.05x    frame=22099 fps= 73 q=-0.0 size=N/A time=00:15:21.71 bitrate=N/A speed=3.05x    frame=22138 fps= 73 q=-0.0 size=N/A time=00:15:23.33 bitrate=N/A speed=3.05x    frame=22171 fps= 73 q=-0.0 size=N/A time=00:15:24.71 bitrate=N/A speed=3.05x    frame=22214 fps= 73 q=-0.0 size=N/A time=00:15:26.50 bitrate=N/A speed=3.05x    frame=22249 fps= 73 q=-0.0 size=N/A time=00:15:27.96 bitrate=N/A speed=3.05x    frame=22289 fps= 73 q=-0.0 size=N/A time=00:15:29.63 bitrate=N/A speed=3.05x    frame=22328 fps= 73 q=-0.0 size=N/A time=00:15:31.26 bitrate=N/A speed=3.05x    frame=22365 fps= 73 q=-0.0 size=N/A time=00:15:32.80 bitrate=N/A speed=3.05x    frame=22403 fps= 73 q=-0.0 size=N/A time=00:15:34.39 bitrate=N/A speed=3.05x    frame=22434 fps= 73 q=-0.0 size=N/A time=00:15:35.68 bitrate=N/A speed=3.05x    frame=22479 fps= 73 q=-0.0 size=N/A time=00:15:37.56 bitrate=N/A speed=3.05x    frame=22517 fps= 73 q=-0.0 size=N/A time=00:15:39.14 bitrate=N/A speed=3.05x    frame=22547 fps= 73 q=-0.0 size=N/A time=00:15:40.39 bitrate=N/A speed=3.05x    frame=22596 fps= 73 q=-0.0 size=N/A time=00:15:42.44 bitrate=N/A speed=3.05x    frame=22634 fps= 73 q=-0.0 size=N/A time=00:15:44.02 bitrate=N/A speed=3.05x    frame=22672 fps= 73 q=-0.0 size=N/A time=00:15:45.61 bitrate=N/A speed=3.05x    frame=22709 fps= 73 q=-0.0 size=N/A time=00:15:47.15 bitrate=N/A speed=3.05x    frame=22740 fps= 73 q=-0.0 size=N/A time=00:15:48.44 bitrate=N/A speed=3.05x    frame=22785 fps= 73 q=-0.0 size=N/A time=00:15:50.32 bitrate=N/A speed=3.05x    frame=22820 fps= 73 q=-0.0 size=N/A time=00:15:51.78 bitrate=N/A speed=3.05x    frame=22857 fps= 73 q=-0.0 size=N/A time=00:15:53.32 bitrate=N/A speed=3.05x    frame=22884 fps= 73 q=-0.0 size=N/A time=00:15:54.45 bitrate=N/A speed=3.05x    frame=22926 fps= 73 q=-0.0 size=N/A time=00:15:56.20 bitrate=N/A speed=3.05x    frame=22964 fps= 73 q=-0.0 size=N/A time=00:15:57.79 bitrate=N/A speed=3.05x    frame=23003 fps= 73 q=-0.0 size=N/A time=00:15:59.41 bitrate=N/A speed=3.05x    frame=23041 fps= 73 q=-0.0 size=N/A time=00:16:01.00 bitrate=N/A speed=3.05x    frame=23071 fps= 73 q=-0.0 size=N/A time=00:16:02.25 bitrate=N/A speed=3.05x    frame=23118 fps= 73 q=-0.0 size=N/A time=00:16:04.21 bitrate=N/A speed=3.05x    frame=23157 fps= 73 q=-0.0 size=N/A time=00:16:05.83 bitrate=N/A speed=3.05x    frame=23188 fps= 73 q=-0.0 size=N/A time=00:16:07.13 bitrate=N/A speed=3.05x    frame=23234 fps= 73 q=-0.0 size=N/A time=00:16:09.05 bitrate=N/A speed=3.05x    frame=23267 fps= 73 q=-0.0 size=N/A time=00:16:10.42 bitrate=N/A speed=3.05x    frame=23310 fps= 73 q=-0.0 size=N/A time=00:16:12.22 bitrate=N/A speed=3.05x    frame=23348 fps= 73 q=-0.0 size=N/A time=00:16:13.80 bitrate=N/A speed=3.05x    frame=23379 fps= 73 q=-0.0 size=N/A time=00:16:15.09 bitrate=N/A speed=3.05x    frame=23416 fps= 73 q=-0.0 size=N/A time=00:16:16.64 bitrate=N/A speed=3.05x    frame=23447 fps= 73 q=-0.0 size=N/A time=00:16:17.93 bitrate=N/A speed=3.05x    frame=23495 fps= 73 q=-0.0 size=N/A time=00:16:19.93 bitrate=N/A speed=3.05x    frame=23533 fps= 73 q=-0.0 size=N/A time=00:16:21.52 bitrate=N/A speed=3.05x    frame=23565 fps= 73 q=-0.0 size=N/A time=00:16:22.85 bitrate=N/A speed=3.05x    frame=23609 fps= 73 q=-0.0 size=N/A time=00:16:24.69 bitrate=N/A speed=3.05x    frame=23647 fps= 73 q=-0.0 size=N/A time=00:16:26.27 bitrate=N/A speed=3.05x    frame=23685 fps= 73 q=-0.0 size=N/A time=00:16:27.86 bitrate=N/A speed=3.05x    frame=23723 fps= 73 q=-0.0 size=N/A time=00:16:29.44 bitrate=N/A speed=3.05x    frame=23761 fps= 73 q=-0.0 size=N/A time=00:16:31.03 bitrate=N/A speed=3.05x    frame=23799 fps= 73 q=-0.0 size=N/A time=00:16:32.61 bitrate=N/A speed=3.05x    frame=23831 fps= 73 q=-0.0 size=N/A time=00:16:33.95 bitrate=N/A speed=3.05x    frame=23876 fps= 73 q=-0.0 size=N/A time=00:16:35.82 bitrate=N/A speed=3.05x    frame=23912 fps= 73 q=-0.0 size=N/A time=00:16:37.32 bitrate=N/A speed=3.05x    frame=23946 fps= 73 q=-0.0 size=N/A time=00:16:38.74 bitrate=N/A speed=3.05x    frame=23982 fps= 73 q=-0.0 size=N/A time=00:16:40.24 bitrate=N/A speed=3.05x    frame=24026 fps= 73 q=-0.0 size=N/A time=00:16:42.08 bitrate=N/A speed=3.05x    frame=24064 fps= 73 q=-0.0 size=N/A time=00:16:43.66 bitrate=N/A speed=3.05x    frame=24098 fps= 73 q=-0.0 size=N/A time=00:16:45.08 bitrate=N/A speed=3.05x    frame=24141 fps= 73 q=-0.0 size=N/A time=00:16:46.88 bitrate=N/A speed=3.05x    frame=24179 fps= 73 q=-0.0 size=N/A time=00:16:48.46 bitrate=N/A speed=3.05x    frame=24217 fps= 73 q=-0.0 size=N/A time=00:16:50.05 bitrate=N/A speed=3.05x    frame=24253 fps= 73 q=-0.0 size=N/A time=00:16:51.55 bitrate=N/A speed=3.05x    frame=24293 fps= 73 q=-0.0 size=N/A time=00:16:53.22 bitrate=N/A speed=3.05x    frame=24325 fps= 73 q=-0.0 size=N/A time=00:16:54.55 bitrate=N/A speed=3.05x    frame=24367 fps= 73 q=-0.0 size=N/A time=00:16:56.30 bitrate=N/A speed=3.05x    frame=24403 fps= 73 q=-0.0 size=N/A time=00:16:57.80 bitrate=N/A speed=3.05x    frame=24444 fps= 73 q=-0.0 size=N/A time=00:16:59.51 bitrate=N/A speed=3.05x    frame=24481 fps= 73 q=-0.0 size=N/A time=00:17:01.06 bitrate=N/A speed=3.05x    frame=24520 fps= 73 q=-0.0 size=N/A time=00:17:02.68 bitrate=N/A speed=3.05x    frame=24556 fps= 73 q=-0.0 size=N/A time=00:17:04.18 bitrate=N/A speed=3.05x    frame=24590 fps= 73 q=-0.0 size=N/A time=00:17:05.60 bitrate=N/A speed=3.05x    frame=24635 fps= 73 q=-0.0 size=N/A time=00:17:07.48 bitrate=N/A speed=3.05x    frame=24673 fps= 73 q=-0.0 size=N/A time=00:17:09.06 bitrate=N/A speed=3.05x    frame=24711 fps= 73 q=-0.0 size=N/A time=00:17:10.65 bitrate=N/A speed=3.05x    frame=24749 fps= 73 q=-0.0 size=N/A time=00:17:12.23 bitrate=N/A speed=3.05x    frame=24782 fps= 73 q=-0.0 size=N/A time=00:17:13.61 bitrate=N/A speed=3.05x    frame=24827 fps= 73 q=-0.0 size=N/A time=00:17:15.49 bitrate=N/A speed=3.05x    frame=24863 fps= 73 q=-0.0 size=N/A time=00:17:16.99 bitrate=N/A speed=3.05x    frame=24902 fps= 73 q=-0.0 size=N/A time=00:17:18.62 bitrate=N/A speed=3.05x    frame=24940 fps= 73 q=-0.0 size=N/A time=00:17:20.20 bitrate=N/A speed=3.05x    frame=24977 fps= 73 q=-0.0 size=N/A time=00:17:21.74 bitrate=N/A speed=3.05x    frame=25015 fps= 73 q=-0.0 size=N/A time=00:17:23.33 bitrate=N/A speed=3.05x    frame=25050 fps= 73 q=-0.0 size=N/A time=00:17:24.79 bitrate=N/A speed=3.05x    frame=25089 fps= 73 q=-0.0 size=N/A time=00:17:26.42 bitrate=N/A speed=3.05x    frame=25126 fps= 73 q=-0.0 size=N/A time=00:17:27.96 bitrate=N/A speed=3.05x    frame=25160 fps= 73 q=-0.0 size=N/A time=00:17:29.38 bitrate=N/A speed=3.05x    frame=25197 fps= 73 q=-0.0 size=N/A time=00:17:30.92 bitrate=N/A speed=3.05x    frame=25236 fps= 73 q=-0.0 size=N/A time=00:17:32.55 bitrate=N/A speed=3.05x    frame=25272 fps= 73 q=-0.0 size=N/A time=00:17:34.05 bitrate=N/A speed=3.05x    frame=25317 fps= 73 q=-0.0 size=N/A time=00:17:35.92 bitrate=N/A speed=3.05x    frame=25355 fps= 73 q=-0.0 size=N/A time=00:17:37.51 bitrate=N/A speed=3.05x    frame=25388 fps= 73 q=-0.0 size=N/A time=00:17:38.89 bitrate=N/A speed=3.05x    frame=25430 fps= 73 q=-0.0 size=N/A time=00:17:40.64 bitrate=N/A speed=3.05x    frame=25467 fps= 73 q=-0.0 size=N/A time=00:17:42.18 bitrate=N/A speed=3.05x    frame=25498 fps= 73 q=-0.0 size=N/A time=00:17:43.47 bitrate=N/A speed=3.05x    frame=25541 fps= 73 q=-0.0 size=N/A time=00:17:45.27 bitrate=N/A speed=3.05x    frame=25578 fps= 73 q=-0.0 size=N/A time=00:17:46.81 bitrate=N/A speed=3.05x    frame=25615 fps= 73 q=-0.0 size=N/A time=00:17:48.35 bitrate=N/A speed=3.05x    frame=25653 fps= 73 q=-0.0 size=N/A time=00:17:49.94 bitrate=N/A speed=3.05x    frame=25682 fps= 73 q=-0.0 size=N/A time=00:17:51.15 bitrate=N/A speed=3.05x    frame=25727 fps= 73 q=-0.0 size=N/A time=00:17:53.03 bitrate=N/A speed=3.05x    frame=25766 fps= 73 q=-0.0 size=N/A time=00:17:54.65 bitrate=N/A speed=3.05x    frame=25798 fps= 73 q=-0.0 size=N/A time=00:17:55.99 bitrate=N/A speed=3.05x    frame=25843 fps= 73 q=-0.0 size=N/A time=00:17:57.86 bitrate=N/A speed=3.05x    frame=25877 fps= 73 q=-0.0 size=N/A time=00:17:59.28 bitrate=N/A speed=3.05x    frame=25922 fps= 73 q=-0.0 size=N/A time=00:18:01.16 bitrate=N/A speed=3.05x    frame=25959 fps= 73 q=-0.0 size=N/A time=00:18:02.70 bitrate=N/A speed=3.05x    frame=25991 fps= 73 q=-0.0 size=N/A time=00:18:04.04 bitrate=N/A speed=3.05x    frame=26024 fps= 73 q=-0.0 size=N/A time=00:18:05.41 bitrate=N/A speed=3.05x    frame=26069 fps= 73 q=-0.0 size=N/A time=00:18:07.29 bitrate=N/A speed=3.05x    frame=26107 fps= 73 q=-0.0 size=N/A time=00:18:08.87 bitrate=N/A speed=3.05x    frame=26145 fps= 73 q=-0.0 size=N/A time=00:18:10.46 bitrate=N/A speed=3.05x    frame=26179 fps= 73 q=-0.0 size=N/A time=00:18:11.88 bitrate=N/A speed=3.05x    frame=26223 fps= 73 q=-0.0 size=N/A time=00:18:13.71 bitrate=N/A speed=3.05x    frame=26260 fps= 73 q=-0.0 size=N/A time=00:18:15.26 bitrate=N/A speed=3.05x    frame=26299 fps= 73 q=-0.0 size=N/A time=00:18:16.88 bitrate=N/A speed=3.05x    frame=26336 fps= 73 q=-0.0 size=N/A time=00:18:18.43 bitrate=N/A speed=3.05x    frame=26376 fps= 73 q=-0.0 size=N/A time=00:18:20.09 bitrate=N/A speed=3.05x    frame=26416 fps= 73 q=-0.0 size=N/A time=00:18:21.76 bitrate=N/A speed=3.05x    frame=26451 fps= 73 q=-0.0 size=N/A time=00:18:23.22 bitrate=N/A speed=3.05x    frame=26492 fps= 73 q=-0.0 size=N/A time=00:18:24.93 bitrate=N/A speed=3.05x    frame=26529 fps= 73 q=-0.0 size=N/A time=00:18:26.48 bitrate=N/A speed=3.05x    frame=26571 fps= 73 q=-0.0 size=N/A time=00:18:28.23 bitrate=N/A speed=3.05x    frame=26610 fps= 73 q=-0.0 size=N/A time=00:18:29.85 bitrate=N/A speed=3.05x    frame=26644 fps= 73 q=-0.0 size=N/A time=00:18:31.27 bitrate=N/A speed=3.05x    frame=26685 fps= 73 q=-0.0 size=N/A time=00:18:32.98 bitrate=N/A speed=3.05x    frame=26721 fps= 73 q=-0.0 size=N/A time=00:18:34.48 bitrate=N/A speed=3.05x    frame=26755 fps= 73 q=-0.0 size=N/A time=00:18:35.90 bitrate=N/A speed=3.05x    frame=26797 fps= 73 q=-0.0 size=N/A time=00:18:37.65 bitrate=N/A speed=3.05x    frame=26835 fps= 73 q=-0.0 size=N/A time=00:18:39.24 bitrate=N/A speed=3.05x    frame=26869 fps= 73 q=-0.0 size=N/A time=00:18:40.66 bitrate=N/A speed=3.05x    frame=26910 fps= 73 q=-0.0 size=N/A time=00:18:42.37 bitrate=N/A speed=3.05x    frame=26950 fps= 73 q=-0.0 size=N/A time=00:18:44.03 bitrate=N/A speed=3.05x    frame=26985 fps= 73 q=-0.0 size=N/A time=00:18:45.49 bitrate=N/A speed=3.05x    frame=27028 fps= 73 q=-0.0 size=N/A time=00:18:47.29 bitrate=N/A speed=3.05x    frame=27066 fps= 73 q=-0.0 size=N/A time=00:18:48.87 bitrate=N/A speed=3.05x    frame=27104 fps= 73 q=-0.0 size=N/A time=00:18:50.46 bitrate=N/A speed=3.05x    frame=27146 fps= 73 q=-0.0 size=N/A time=00:18:52.21 bitrate=N/A speed=3.05x    frame=27182 fps= 73 q=-0.0 size=N/A time=00:18:53.71 bitrate=N/A speed=3.05x    frame=27217 fps= 73 q=-0.0 size=N/A time=00:18:55.17 bitrate=N/A speed=3.05x    frame=27256 fps= 73 q=-0.0 size=N/A time=00:18:56.80 bitrate=N/A speed=3.05x    frame=27295 fps= 73 q=-0.0 size=N/A time=00:18:58.42 bitrate=N/A speed=3.05x    frame=27328 fps= 73 q=-0.0 size=N/A time=00:18:59.80 bitrate=N/A speed=3.05x    frame=27370 fps= 73 q=-0.0 size=N/A time=00:19:01.55 bitrate=N/A speed=3.05x    frame=27409 fps= 73 q=-0.0 size=N/A time=00:19:03.18 bitrate=N/A speed=3.05x    frame=27438 fps= 73 q=-0.0 size=N/A time=00:19:04.39 bitrate=N/A speed=3.05x    frame=27481 fps= 73 q=-0.0 size=N/A time=00:19:06.18 bitrate=N/A speed=3.05x    frame=27523 fps= 73 q=-0.0 size=N/A time=00:19:07.93 bitrate=N/A speed=3.05x    frame=27560 fps= 73 q=-0.0 size=N/A time=00:19:09.48 bitrate=N/A speed=3.05x    frame=27590 fps= 73 q=-0.0 size=N/A time=00:19:10.73 bitrate=N/A speed=3.05x    frame=27635 fps= 73 q=-0.0 size=N/A time=00:19:12.60 bitrate=N/A speed=3.05x    frame=27672 fps= 73 q=-0.0 size=N/A time=00:19:14.15 bitrate=N/A speed=3.05x    frame=27710 fps= 73 q=-0.0 size=N/A time=00:19:15.73 bitrate=N/A speed=3.05x    frame=27746 fps= 73 q=-0.0 size=N/A time=00:19:17.23 bitrate=N/A speed=3.05x    frame=27784 fps= 73 q=-0.0 size=N/A time=00:19:18.82 bitrate=N/A speed=3.05x    frame=27822 fps= 73 q=-0.0 size=N/A time=00:19:20.40 bitrate=N/A speed=3.05x    frame=27861 fps= 73 q=-0.0 size=N/A time=00:19:22.03 bitrate=N/A speed=3.05x    frame=27900 fps= 73 q=-0.0 size=N/A time=00:19:23.66 bitrate=N/A speed=3.05x    frame=27931 fps= 73 q=-0.0 size=N/A time=00:19:24.95 bitrate=N/A speed=3.05x    frame=27977 fps= 73 q=-0.0 size=N/A time=00:19:26.87 bitrate=N/A speed=3.05x    frame=28014 fps= 73 q=-0.0 size=N/A time=00:19:28.41 bitrate=N/A speed=3.05x    frame=28053 fps= 73 q=-0.0 size=N/A time=00:19:30.04 bitrate=N/A speed=3.05x    frame=28089 fps= 73 q=-0.0 size=N/A time=00:19:31.54 bitrate=N/A speed=3.05x    frame=28123 fps= 73 q=-0.0 size=N/A time=00:19:32.96 bitrate=N/A speed=3.05x    frame=28159 fps= 73 q=-0.0 size=N/A time=00:19:34.46 bitrate=N/A speed=3.05x    frame=28205 fps= 73 q=-0.0 size=N/A time=00:19:36.38 bitrate=N/A speed=3.05x    frame=28242 fps= 73 q=-0.0 size=N/A time=00:19:37.92 bitrate=N/A speed=3.05x    frame=28279 fps= 73 q=-0.0 size=N/A time=00:19:39.46 bitrate=N/A speed=3.05x    frame=28315 fps= 73 q=-0.0 size=N/A time=00:19:40.97 bitrate=N/A speed=3.05x    frame=28353 fps= 73 q=-0.0 size=N/A time=00:19:42.55 bitrate=N/A speed=3.05x    frame=28390 fps= 73 q=-0.0 size=N/A time=00:19:44.09 bitrate=N/A speed=3.05x    frame=28423 fps= 73 q=-0.0 size=N/A time=00:19:45.47 bitrate=N/A speed=3.05x    frame=28468 fps= 73 q=-0.0 size=N/A time=00:19:47.35 bitrate=N/A speed=3.05x    frame=28507 fps= 73 q=-0.0 size=N/A time=00:19:48.97 bitrate=N/A speed=3.05x    frame=28540 fps= 73 q=-0.0 size=N/A time=00:19:50.35 bitrate=N/A speed=3.05x    frame=28584 fps= 73 q=-0.0 size=N/A time=00:19:52.19 bitrate=N/A speed=3.05x    frame=28621 fps= 73 q=-0.0 size=N/A time=00:19:53.73 bitrate=N/A speed=3.05x    frame=28657 fps= 73 q=-0.0 size=N/A time=00:19:55.23 bitrate=N/A speed=3.05x    frame=28697 fps= 73 q=-0.0 size=N/A time=00:19:56.90 bitrate=N/A speed=3.05x    frame=28735 fps= 73 q=-0.0 size=N/A time=00:19:58.48 bitrate=N/A speed=3.05x    frame=28774 fps= 73 q=-0.0 size=N/A time=00:20:00.11 bitrate=N/A speed=3.05x    frame=28812 fps= 73 q=-0.0 size=N/A time=00:20:01.70 bitrate=N/A speed=3.05x    frame=28843 fps= 73 q=-0.0 size=N/A time=00:20:02.99 bitrate=N/A speed=3.05x    frame=28886 fps= 73 q=-0.0 size=N/A time=00:20:04.78 bitrate=N/A speed=3.05x    frame=28925 fps= 73 q=-0.0 size=N/A time=00:20:06.41 bitrate=N/A speed=3.05x    frame=28963 fps= 73 q=-0.0 size=N/A time=00:20:07.99 bitrate=N/A speed=3.05x    frame=28999 fps= 73 q=-0.0 size=N/A time=00:20:09.49 bitrate=N/A speed=3.05x    frame=29036 fps= 73 q=-0.0 size=N/A time=00:20:11.04 bitrate=N/A speed=3.05x    frame=29076 fps= 73 q=-0.0 size=N/A time=00:20:12.71 bitrate=N/A speed=3.05x    frame=29114 fps= 73 q=-0.0 size=N/A time=00:20:14.29 bitrate=N/A speed=3.05x    frame=29151 fps= 73 q=-0.0 size=N/A time=00:20:15.83 bitrate=N/A speed=3.05x    frame=29184 fps= 73 q=-0.0 size=N/A time=00:20:17.21 bitrate=N/A speed=3.05x    frame=29225 fps= 73 q=-0.0 size=N/A time=00:20:18.92 bitrate=N/A speed=3.05x    frame=29266 fps= 73 q=-0.0 size=N/A time=00:20:20.63 bitrate=N/A speed=3.05x    frame=29302 fps= 73 q=-0.0 size=N/A time=00:20:22.13 bitrate=N/A speed=3.05x    frame=29340 fps= 73 q=-0.0 size=N/A time=00:20:23.72 bitrate=N/A speed=3.05x    frame=29372 fps= 73 q=-0.0 size=N/A time=00:20:25.05 bitrate=N/A speed=3.05x    frame=29415 fps= 73 q=-0.0 size=N/A time=00:20:26.85 bitrate=N/A speed=3.05x    frame=29453 fps= 73 q=-0.0 size=N/A time=00:20:28.43 bitrate=N/A speed=3.05x    frame=29491 fps= 73 q=-0.0 size=N/A time=00:20:30.02 bitrate=N/A speed=3.05x    frame=29528 fps= 73 q=-0.0 size=N/A time=00:20:31.56 bitrate=N/A speed=3.05x    frame=29566 fps= 73 q=-0.0 size=N/A time=00:20:33.14 bitrate=N/A speed=3.05x    frame=29605 fps= 73 q=-0.0 size=N/A time=00:20:34.77 bitrate=N/A speed=3.05x    frame=29642 fps= 73 q=-0.0 size=N/A time=00:20:36.31 bitrate=N/A speed=3.05x    frame=29682 fps= 73 q=-0.0 size=N/A time=00:20:37.98 bitrate=N/A speed=3.05x    frame=29719 fps= 73 q=-0.0 size=N/A time=00:20:39.52 bitrate=N/A speed=3.05x    frame=29751 fps= 73 q=-0.0 size=N/A time=00:20:40.86 bitrate=N/A speed=3.05x    frame=29795 fps= 73 q=-0.0 size=N/A time=00:20:42.69 bitrate=N/A speed=3.05x    frame=29831 fps= 73 q=-0.0 size=N/A time=00:20:44.20 bitrate=N/A speed=3.05x    frame=29862 fps= 73 q=-0.0 size=N/A time=00:20:45.49 bitrate=N/A speed=3.05x    frame=29907 fps= 73 q=-0.0 size=N/A time=00:20:47.37 bitrate=N/A speed=3.05x    frame=29945 fps= 73 q=-0.0 size=N/A time=00:20:48.95 bitrate=N/A speed=3.05x    frame=29982 fps= 73 q=-0.0 size=N/A time=00:20:50.49 bitrate=N/A speed=3.05x    frame=30021 fps= 73 q=-0.0 size=N/A time=00:20:52.12 bitrate=N/A speed=3.05x    frame=30055 fps= 73 q=-0.0 size=N/A time=00:20:53.54 bitrate=N/A speed=3.05x    frame=30097 fps= 73 q=-0.0 size=N/A time=00:20:55.29 bitrate=N/A speed=3.05x    frame=30135 fps= 73 q=-0.0 size=N/A time=00:20:56.88 bitrate=N/A speed=3.05x    frame=30165 fps= 73 q=-0.0 size=N/A time=00:20:58.13 bitrate=N/A speed=3.05x    frame=30208 fps= 73 q=-0.0 size=N/A time=00:20:59.92 bitrate=N/A speed=3.05x    frame=30251 fps= 73 q=-0.0 size=N/A time=00:21:01.71 bitrate=N/A speed=3.05x    frame=30289 fps= 73 q=-0.0 size=N/A time=00:21:03.30 bitrate=N/A speed=3.05x    frame=30327 fps= 73 q=-0.0 size=N/A time=00:21:04.88 bitrate=N/A speed=3.05x    frame=30364 fps= 73 q=-0.0 size=N/A time=00:21:06.43 bitrate=N/A speed=3.05x    frame=30402 fps= 73 q=-0.0 size=N/A time=00:21:08.01 bitrate=N/A speed=3.05x    frame=30441 fps= 73 q=-0.0 size=N/A time=00:21:09.64 bitrate=N/A speed=3.05x    frame=30474 fps= 73 q=-0.0 size=N/A time=00:21:11.01 bitrate=N/A speed=3.05x    frame=30502 fps= 73 q=-0.0 size=N/A time=00:21:12.18 bitrate=N/A speed=3.05x    frame=30546 fps= 73 q=-0.0 size=N/A time=00:21:14.02 bitrate=N/A speed=3.05x    frame=30591 fps= 73 q=-0.0 size=N/A time=00:21:15.89 bitrate=N/A speed=3.05x    frame=30628 fps= 73 q=-0.0 size=N/A time=00:21:17.44 bitrate=N/A speed=3.05x    frame=30667 fps= 73 q=-0.0 size=N/A time=00:21:19.06 bitrate=N/A speed=3.05x    frame=30705 fps= 73 q=-0.0 size=N/A time=00:21:20.65 bitrate=N/A speed=3.05x    frame=30744 fps= 73 q=-0.0 size=N/A time=00:21:22.28 bitrate=N/A speed=3.05x    frame=30781 fps= 73 q=-0.0 size=N/A time=00:21:23.82 bitrate=N/A speed=3.05x    frame=30819 fps= 73 q=-0.0 size=N/A time=00:21:25.40 bitrate=N/A speed=3.05x    frame=30856 fps= 73 q=-0.0 size=N/A time=00:21:26.95 bitrate=N/A speed=3.05x    frame=30895 fps= 73 q=-0.0 size=N/A time=00:21:28.57 bitrate=N/A speed=3.05x    frame=30928 fps= 73 q=-0.0 size=N/A time=00:21:29.95 bitrate=N/A speed=3.05x    frame=30955 fps= 73 q=-0.0 size=N/A time=00:21:31.08 bitrate=N/A speed=3.05x    frame=31007 fps= 73 q=-0.0 size=N/A time=00:21:33.25 bitrate=N/A speed=3.05x    frame=31046 fps= 73 q=-0.0 size=N/A time=00:21:34.87 bitrate=N/A speed=3.05x    frame=31083 fps= 73 q=-0.0 size=N/A time=00:21:36.42 bitrate=N/A speed=3.05x    frame=31122 fps= 73 q=-0.0 size=N/A time=00:21:38.04 bitrate=N/A speed=3.05x    frame=31152 fps= 73 q=-0.0 size=N/A time=00:21:39.29 bitrate=N/A speed=3.05x    frame=31192 fps= 73 q=-0.0 size=N/A time=00:21:40.96 bitrate=N/A speed=3.05x    frame=31235 fps= 73 q=-0.0 size=N/A time=00:21:42.75 bitrate=N/A speed=3.05x    frame=31274 fps= 73 q=-0.0 size=N/A time=00:21:44.38 bitrate=N/A speed=3.05x    frame=31313 fps= 73 q=-0.0 size=N/A time=00:21:46.01 bitrate=N/A speed=3.05x    frame=31350 fps= 73 q=-0.0 size=N/A time=00:21:47.55 bitrate=N/A speed=3.05x    frame=31384 fps= 73 q=-0.0 size=N/A time=00:21:48.97 bitrate=N/A speed=3.05x    frame=31426 fps= 73 q=-0.0 size=N/A time=00:21:50.72 bitrate=N/A speed=3.05x    frame=31461 fps= 73 q=-0.0 size=N/A time=00:21:52.18 bitrate=N/A speed=3.05x    frame=31497 fps= 73 q=-0.0 size=N/A time=00:21:53.68 bitrate=N/A speed=3.05x    frame=31537 fps= 73 q=-0.0 size=N/A time=00:21:55.35 bitrate=N/A speed=3.05x    frame=31573 fps= 73 q=-0.0 size=N/A time=00:21:56.85 bitrate=N/A speed=3.05x    frame=31611 fps= 73 q=-0.0 size=N/A time=00:21:58.44 bitrate=N/A speed=3.05x    frame=31650 fps= 73 q=-0.0 size=N/A time=00:22:00.06 bitrate=N/A speed=3.05x    frame=31682 fps= 73 q=-0.0 size=N/A time=00:22:01.40 bitrate=N/A speed=3.05x    frame=31727 fps= 73 q=-0.0 size=N/A time=00:22:03.28 bitrate=N/A speed=3.05x    frame=31758 fps= 73 q=-0.0 size=N/A time=00:22:04.57 bitrate=N/A speed=3.05x    frame=31804 fps= 73 q=-0.0 size=N/A time=00:22:06.49 bitrate=N/A speed=3.05x    frame=31841 fps= 73 q=-0.0 size=N/A time=00:22:08.03 bitrate=N/A speed=3.05x    frame=31878 fps= 73 q=-0.0 size=N/A time=00:22:09.57 bitrate=N/A speed=3.05x    frame=31913 fps= 73 q=-0.0 size=N/A time=00:22:11.03 bitrate=N/A speed=3.05x    frame=31948 fps= 73 q=-0.0 size=N/A time=00:22:12.49 bitrate=N/A speed=3.05x    frame=31984 fps= 73 q=-0.0 size=N/A time=00:22:13.99 bitrate=N/A speed=3.05x    frame=32022 fps= 73 q=-0.0 size=N/A time=00:22:15.58 bitrate=N/A speed=3.05x    frame=32054 fps= 73 q=-0.0 size=N/A time=00:22:16.91 bitrate=N/A speed=3.05x    frame=32096 fps= 73 q=-0.0 size=N/A time=00:22:18.67 bitrate=N/A speed=3.05x    frame=32134 fps= 73 q=-0.0 size=N/A time=00:22:20.25 bitrate=N/A speed=3.05x    frame=32167 fps= 73 q=-0.0 size=N/A time=00:22:21.63 bitrate=N/A speed=3.05x    frame=32210 fps= 73 q=-0.0 size=N/A time=00:22:23.42 bitrate=N/A speed=3.05x    frame=32247 fps= 73 q=-0.0 size=N/A time=00:22:24.96 bitrate=N/A speed=3.05x    frame=32286 fps= 73 q=-0.0 size=N/A time=00:22:26.59 bitrate=N/A speed=3.05x    frame=32323 fps= 73 q=-0.0 size=N/A time=00:22:28.13 bitrate=N/A speed=3.05x    frame=32361 fps= 73 q=-0.0 size=N/A time=00:22:29.72 bitrate=N/A speed=3.05x    frame=32399 fps= 73 q=-0.0 size=N/A time=00:22:31.30 bitrate=N/A speed=3.05x    frame=32434 fps= 73 q=-0.0 size=N/A time=00:22:32.76 bitrate=N/A speed=3.05x    frame=32474 fps= 73 q=-0.0 size=N/A time=00:22:34.43 bitrate=N/A speed=3.05x    frame=32511 fps= 73 q=-0.0 size=N/A time=00:22:35.97 bitrate=N/A speed=3.05x    frame=32548 fps= 73 q=-0.0 size=N/A time=00:22:37.52 bitrate=N/A speed=3.05x    frame=32585 fps= 73 q=-0.0 size=N/A time=00:22:39.06 bitrate=N/A speed=3.05x    frame=32616 fps= 73 q=-0.0 size=N/A time=00:22:40.35 bitrate=N/A speed=3.05x    frame=32650 fps= 73 q=-0.0 size=N/A time=00:22:41.77 bitrate=N/A speed=3.05x    frame=32690 fps= 73 q=-0.0 size=N/A time=00:22:43.44 bitrate=N/A speed=3.05x    frame=32728 fps= 73 q=-0.0 size=N/A time=00:22:45.03 bitrate=N/A speed=3.05x    frame=32773 fps= 73 q=-0.0 size=N/A time=00:22:46.90 bitrate=N/A speed=3.05x    frame=32811 fps= 73 q=-0.0 size=N/A time=00:22:48.49 bitrate=N/A speed=3.05x    frame=32849 fps= 73 q=-0.0 size=N/A time=00:22:50.07 bitrate=N/A speed=3.05x    frame=32888 fps= 73 q=-0.0 size=N/A time=00:22:51.70 bitrate=N/A speed=3.05x    frame=32919 fps= 73 q=-0.0 size=N/A time=00:22:52.99 bitrate=N/A speed=3.05x    frame=32963 fps= 73 q=-0.0 size=N/A time=00:22:54.83 bitrate=N/A speed=3.05x    frame=33001 fps= 73 q=-0.0 size=N/A time=00:22:56.41 bitrate=N/A speed=3.05x    frame=33035 fps= 73 q=-0.0 size=N/A time=00:22:57.83 bitrate=N/A speed=3.05x    frame=33077 fps= 73 q=-0.0 size=N/A time=00:22:59.58 bitrate=N/A speed=3.05x    frame=33113 fps= 73 q=-0.0 size=N/A time=00:23:01.08 bitrate=N/A speed=3.05x    frame=33150 fps= 73 q=-0.0 size=N/A time=00:23:02.63 bitrate=N/A speed=3.05x    frame=33187 fps= 73 q=-0.0 size=N/A time=00:23:04.17 bitrate=N/A speed=3.05x    frame=33219 fps= 73 q=-0.0 size=N/A time=00:23:05.50 bitrate=N/A speed=3.05x    frame=33261 fps= 73 q=-0.0 size=N/A time=00:23:07.26 bitrate=N/A speed=3.05x    frame=33298 fps= 73 q=-0.0 size=N/A time=00:23:08.80 bitrate=N/A speed=3.05x    frame=33333 fps= 73 q=-0.0 size=N/A time=00:23:10.26 bitrate=N/A speed=3.05x    frame=33371 fps= 73 q=-0.0 size=N/A time=00:23:11.84 bitrate=N/A speed=3.05x    frame=33399 fps= 73 q=-0.0 size=N/A time=00:23:13.01 bitrate=N/A speed=3.05x    frame=33444 fps= 73 q=-0.0 size=N/A time=00:23:14.89 bitrate=N/A speed=3.05x    frame=33490 fps= 73 q=-0.0 size=N/A time=00:23:16.81 bitrate=N/A speed=3.05x    frame=33525 fps= 73 q=-0.0 size=N/A time=00:23:18.27 bitrate=N/A speed=3.05x    frame=33561 fps= 73 q=-0.0 size=N/A time=00:23:19.77 bitrate=N/A speed=3.05x    frame=33602 fps= 73 q=-0.0 size=N/A time=00:23:21.48 bitrate=N/A speed=3.05x    frame=33638 fps= 73 q=-0.0 size=N/A time=00:23:22.98 bitrate=N/A speed=3.05x    frame=33672 fps= 73 q=-0.0 size=N/A time=00:23:24.40 bitrate=N/A speed=3.05x    frame=33710 fps= 73 q=-0.0 size=N/A time=00:23:25.98 bitrate=N/A speed=3.05x    frame=33746 fps= 73 q=-0.0 size=N/A time=00:23:27.48 bitrate=N/A speed=3.05x    frame=33773 fps= 73 q=-0.0 size=N/A time=00:23:28.61 bitrate=N/A speed=3.05x    frame=33826 fps= 73 q=-0.0 size=N/A time=00:23:30.82 bitrate=N/A speed=3.05x    frame=33856 fps= 73 q=-0.0 size=N/A time=00:23:32.07 bitrate=N/A speed=3.05x    frame=33901 fps= 73 q=-0.0 size=N/A time=00:23:33.95 bitrate=N/A speed=3.05x    frame=33941 fps= 73 q=-0.0 size=N/A time=00:23:35.62 bitrate=N/A speed=3.05x    frame=33977 fps= 73 q=-0.0 size=N/A time=00:23:37.12 bitrate=N/A speed=3.05x    frame=34018 fps= 73 q=-0.0 size=N/A time=00:23:38.83 bitrate=N/A speed=3.05x    frame=34056 fps= 73 q=-0.0 size=N/A time=00:23:40.41 bitrate=N/A speed=3.05x    frame=34084 fps= 73 q=-0.0 size=N/A time=00:23:41.58 bitrate=N/A speed=3.05x    frame=34134 fps= 73 q=-0.0 size=N/A time=00:23:43.67 bitrate=N/A speed=3.05x    frame=34171 fps= 73 q=-0.0 size=N/A time=00:23:45.21 bitrate=N/A speed=3.05x    frame=34201 fps= 73 q=-0.0 size=N/A time=00:23:46.46 bitrate=N/A speed=3.05x    frame=34247 fps= 73 q=-0.0 size=N/A time=00:23:48.38 bitrate=N/A speed=3.05x    frame=34285 fps= 73 q=-0.0 size=N/A time=00:23:49.97 bitrate=N/A speed=3.05x    frame=34322 fps= 73 q=-0.0 size=N/A time=00:23:51.51 bitrate=N/A speed=3.05x    frame=34357 fps= 73 q=-0.0 size=N/A time=00:23:52.97 bitrate=N/A speed=3.05x    frame=34397 fps= 73 q=-0.0 size=N/A time=00:23:54.64 bitrate=N/A speed=3.05x    [Parsed_psnr_10 @ 000001c5d52d8880] PSNR y:45.605973 u:50.132705 v:49.562759 average:46.616232 min:37.872006 max:55.916924
[out#0/null @ 000001c5d44df180] video:14780KiB audio:269020KiB subtitle:0KiB other streams:0KiB global headers:0KiB muxing overhead: unknown
frame=34398 fps= 73 q=-0.0 Lsize=N/A time=00:23:54.68 bitrate=N/A speed=3.05x    
